<svg width="56" height="56" viewBox="0 0 56 56" fill="none" xmlns="http://www.w3.org/2000/svg">
<g clip-path="url(#clip0_19639_18859)">
<rect x="11.25" y="3.08301" width="33.5" height="49.8333" rx="3.25" fill="#ECE7F5" stroke="#200020" stroke-width="1.5"/>
<path fill-rule="evenodd" clip-rule="evenodd" d="M38.7051 10.3536C38.9004 10.1583 38.9004 9.84175 38.7051 9.64648L38.3516 9.29293C38.1563 9.09767 37.8397 9.09767 37.6445 9.29293L37.4677 9.46971L36.3516 10.5858C36.1563 10.7811 35.8397 10.7811 35.6445 10.5858L34.5284 9.46971L34.3516 9.29293C34.1563 9.09767 33.8397 9.09767 33.6445 9.29293L33.2909 9.64648C33.0957 9.84175 33.0957 10.1583 33.2909 10.3536L33.4677 10.5304L34.5838 11.6465C34.7791 11.8417 34.7791 12.1583 34.5838 12.3536L33.4677 13.4697L33.2909 13.6465C33.0957 13.8417 33.0957 14.1583 33.2909 14.3536L33.6445 14.7071C33.8397 14.9024 34.1563 14.9024 34.3516 14.7071L34.5284 14.5304L35.6445 13.4142C35.8397 13.219 36.1563 13.219 36.3516 13.4142L37.4677 14.5304L37.6445 14.7071C37.8398 14.9024 38.1563 14.9024 38.3516 14.7071L38.7051 14.3536C38.9004 14.1583 38.9004 13.8417 38.7051 13.6465L38.5284 13.4697L37.4122 12.3536C37.217 12.1583 37.217 11.8417 37.4122 11.6465L38.5284 10.5304L38.7051 10.3536ZM38.7051 26.3537L38.5284 26.5305L37.4122 27.6466C37.217 27.8418 37.217 28.1584 37.4122 28.3537L38.5284 29.4698L38.7051 29.6466C38.9004 29.8418 38.9004 30.1584 38.7051 30.3537L38.3516 30.7072C38.1563 30.9025 37.8398 30.9025 37.6445 30.7072L37.4677 30.5305L36.3516 29.4143C36.1563 29.2191 35.8397 29.2191 35.6445 29.4143L34.5284 30.5305L34.3516 30.7072C34.1563 30.9025 33.8397 30.9025 33.6445 30.7072L33.2909 30.3537C33.0957 30.1584 33.0957 29.8418 33.2909 29.6466L33.4677 29.4698L34.5838 28.3537C34.7791 28.1584 34.7791 27.8418 34.5838 27.6466L33.4677 26.5305L33.2909 26.3537C33.0957 26.1584 33.0957 25.8418 33.2909 25.6466L33.6445 25.293C33.8397 25.0978 34.1563 25.0978 34.3516 25.293L34.5284 25.4698L35.6445 26.5859C35.8397 26.7812 36.1563 26.7812 36.3516 26.5859L37.4677 25.4698L37.6445 25.293C37.8397 25.0978 38.1563 25.0978 38.3516 25.293L38.7051 25.6466C38.9004 25.8418 38.9004 26.1584 38.7051 26.3537ZM22.7052 42.3536C22.9005 42.1583 22.9005 41.8418 22.7052 41.6465L22.3516 41.2929C22.1564 41.0977 21.8398 41.0977 21.6445 41.2929L21.4678 41.4697L20.3516 42.5858C20.1564 42.7811 19.8398 42.7811 19.6445 42.5858L18.5284 41.4697L18.3517 41.2929C18.1564 41.0977 17.8398 41.0977 17.6446 41.2929L17.291 41.6465C17.0957 41.8418 17.0957 42.1583 17.291 42.3536L17.4678 42.5304L18.5839 43.6465C18.7791 43.8418 18.7791 44.1583 18.5839 44.3536L17.4678 45.4697L17.291 45.6465C17.0957 45.8418 17.0957 46.1584 17.291 46.3536L17.6445 46.7072C17.8398 46.9024 18.1564 46.9024 18.3516 46.7072L18.5284 46.5304L19.6445 45.4143C19.8398 45.219 20.1564 45.219 20.3516 45.4143L21.4678 46.5304L21.6446 46.7072C21.8398 46.9024 22.1564 46.9024 22.3517 46.7072L22.7052 46.3536C22.9005 46.1584 22.9005 45.8418 22.7052 45.6465L22.5284 45.4697L21.4123 44.3536C21.217 44.1583 21.217 43.8418 21.4123 43.6465L22.5284 42.5304L22.7052 42.3536ZM22.7052 26.3537C22.9005 26.1584 22.9005 25.8418 22.7052 25.6466L22.3516 25.293C22.1564 25.0978 21.8398 25.0978 21.6445 25.293L21.4678 25.4698L20.3516 26.5859C20.1564 26.7812 19.8398 26.7812 19.6445 26.5859L18.5284 25.4698L18.3517 25.293C18.1564 25.0978 17.8398 25.0978 17.6446 25.293L17.291 25.6466C17.0957 25.8418 17.0957 26.1584 17.291 26.3537L17.4678 26.5305L18.5839 27.6466C18.7791 27.8418 18.7791 28.1584 18.5839 28.3537L17.4678 29.4698L17.291 29.6466C17.0957 29.8418 17.0957 30.1584 17.291 30.3537L17.6445 30.7072C17.8398 30.9025 18.1564 30.9025 18.3516 30.7072L18.5284 30.5305L19.6445 29.4143C19.8398 29.2191 20.1564 29.2191 20.3516 29.4143L21.4678 30.5305L21.6446 30.7072C21.8398 30.9025 22.1564 30.9025 22.3517 30.7072L22.7052 30.3537C22.9005 30.1584 22.9005 29.8418 22.7052 29.6466L22.5284 29.4698L21.4123 28.3537C21.217 28.1584 21.217 27.8418 21.4123 27.6466L22.5284 26.5305L22.7052 26.3537ZM35.9981 13.0606L34.9374 12L35.9981 10.9393L37.0588 12L35.9981 13.0606ZM35.9981 29.0607L34.9374 28.0001L35.9981 26.9394L37.0588 28.0001L35.9981 29.0607ZM19.9982 42.9393L18.9375 44L19.9982 45.0607L21.0588 44L19.9982 42.9393ZM18.9375 28.0001L19.9982 26.9394L21.0588 28.0001L19.9982 29.0607L18.9375 28.0001Z" fill="#200020"/>
<path fill-rule="evenodd" clip-rule="evenodd" d="M21.6446 14.7071L21.4678 14.5304L20.3516 13.4142C20.1564 13.219 19.8398 13.219 19.6445 13.4142L18.5284 14.5304L18.3516 14.7071C18.1564 14.9024 17.8398 14.9024 17.6445 14.7071L17.291 14.3536C17.0957 14.1583 17.0957 13.8417 17.291 13.6465L17.4678 13.4697L18.5839 12.3536C18.7791 12.1583 18.7791 11.8417 18.5839 11.6465L17.4678 10.5304L17.291 10.3536C17.0957 10.1583 17.0957 9.84175 17.291 9.64648L17.6446 9.29293C17.8398 9.09767 18.1564 9.09767 18.3517 9.29293L18.5284 9.46971L19.6445 10.5858C19.8398 10.7811 20.1564 10.7811 20.3516 10.5858L21.4678 9.46971L21.6445 9.29293C21.8398 9.09767 22.1564 9.09767 22.3516 9.29293L22.7052 9.64649C22.9005 9.84175 22.9005 10.1583 22.7052 10.3536L22.5284 10.5304L21.4123 11.6465C21.217 11.8417 21.217 12.1583 21.4123 12.3536L22.5284 13.4697L22.7052 13.6465C22.9005 13.8417 22.9005 14.1583 22.7052 14.3536L22.3517 14.7071C22.1564 14.9024 21.8398 14.9024 21.6446 14.7071ZM38.7051 42.3536C38.9004 42.1584 38.9004 41.8418 38.7051 41.6465L38.3516 41.293C38.1563 41.0977 37.8397 41.0977 37.6445 41.293L37.4677 41.4697L36.3516 42.5858C36.1563 42.7811 35.8397 42.7811 35.6445 42.5858L34.5284 41.4697L34.3516 41.293C34.1563 41.0977 33.8397 41.0977 33.6445 41.293L33.2909 41.6465C33.0957 41.8418 33.0957 42.1584 33.2909 42.3536L33.4677 42.5304L34.5838 43.6465C34.7791 43.8418 34.7791 44.1583 34.5838 44.3536L33.4677 45.4697L33.2909 45.6465C33.0957 45.8418 33.0957 46.1584 33.2909 46.3536L33.6445 46.7072C33.8397 46.9024 34.1563 46.9024 34.3516 46.7072L34.5284 46.5304L35.6445 45.4143C35.8397 45.219 36.1563 45.219 36.3516 45.4143L37.4677 46.5304L37.6445 46.7072C37.8398 46.9024 38.1563 46.9024 38.3516 46.7072L38.7052 46.3536C38.9004 46.1584 38.9004 45.8418 38.7052 45.6465L38.5284 45.4697L37.4122 44.3536C37.217 44.1583 37.217 43.8418 37.4122 43.6465L38.5284 42.5304L38.7051 42.3536ZM18.9375 12L19.9982 10.9393L21.0588 12L19.9982 13.0606L18.9375 12ZM35.9981 45.0607L34.9374 44L35.9981 42.9393L37.0588 44L35.9981 45.0607Z" fill="#DA0081"/>
</g>
<defs>
<clipPath id="clip0_19639_18859">
<rect width="56" height="56" fill="white"/>
</clipPath>
</defs>
</svg>
