<svg width="56" height="56" viewBox="0 0 56 56" fill="none" xmlns="http://www.w3.org/2000/svg">
<path d="M48.9847 10.5H7.01531C5.07386 10.5 3.5 12.0739 3.5 14.0153V36.7347C3.5 38.6761 5.07386 40.25 7.01531 40.25H48.9847C50.9261 40.25 52.5 38.6761 52.5 36.7347V14.0153C52.5 12.0739 50.9261 10.5 48.9847 10.5Z" fill="#ECE7F5" stroke="#200020" stroke-width="1.5" stroke-linejoin="round"/>
<path d="M14 45.5H42" stroke="#200020" stroke-width="1.5" stroke-miterlimit="10" stroke-linecap="round"/>
<path d="M32.1805 29.236C31.0293 28.2127 29.5426 27.6475 28.0023 27.6475C26.4621 27.6475 24.9754 28.2127 23.8242 29.236" stroke="#DA0081" stroke-width="1.5" stroke-linecap="round" stroke-linejoin="round"/>
<path d="M35.5191 25.8958C33.4802 23.9893 30.7931 22.9287 28.0017 22.9287C25.2103 22.9287 22.5232 23.9893 20.4844 25.8958" stroke="#DA0081" stroke-width="1.5" stroke-linecap="round" stroke-linejoin="round"/>
<path d="M38.485 22.2079C35.5993 19.6336 31.8673 18.2109 28.0003 18.2109C24.1332 18.2109 20.4013 19.6336 17.5156 22.2079" stroke="#DA0081" stroke-width="1.5" stroke-linecap="round" stroke-linejoin="round"/>
<path d="M28 35C27.6539 35 27.3155 34.8974 27.0278 34.7051C26.74 34.5128 26.5157 34.2395 26.3832 33.9197C26.2508 33.5999 26.2161 33.248 26.2836 32.9086C26.3512 32.5691 26.5178 32.2573 26.7626 32.0125C27.0073 31.7678 27.3191 31.6011 27.6586 31.5336C27.9981 31.4661 28.3499 31.5007 28.6697 31.6332C28.9895 31.7656 29.2628 31.9899 29.4551 32.2777C29.6474 32.5655 29.75 32.9039 29.75 33.25C29.75 33.7141 29.5656 34.1592 29.2375 34.4874C28.9093 34.8156 28.4641 35 28 35Z" fill="#DA0081"/>
</svg>
