<svg xmlns="http://www.w3.org/2000/svg" viewBox="0 0 1904.4 828" fill="none">
  <path fill="#381451" fill-rule="evenodd" d="M1885,593.5c5.6,18.5 -1.9,30.3 -20.1,32.6L1762,638.1c-15.5,1.8 -27.8,-4.9 -31.1,-20.1l-90.2,-370.8c-2.7,-8.8 -9.6,-8 -10.3,1.3l-17.1,383.4c-0.9,15.6 -10.5,25.1 -26,26.8l-74.4,8.8c-15.6,1.9 -26.8,-5 -31,-20.1l-98.8,-369.6c-2.7,-8.8 -9.6,-8 -10.5,1.3l-8.4,382.4c-0.1,15.4 -10.5,24.9 -26,26.8L1235,700.4c-18.3,2.2 -28,-7.7 -26.6,-27L1252,82c0.9,-15.7 10.5,-25 26.1,-26.9l122.1,-14.3c15.5,-1.9 26,5.2 31.1,20l71.7,216.6c2.7,8.7 9.6,7.9 10.3,-1.3l23.5,-227.7c1.8,-15.8 10.4,-25 26.1,-26.9l121.9,-14.4c15.6,-1.8 26.9,5 31.1,20.1L1885,593.5zM1.8,236c-5.5,-18.6 2,-30.5 20.1,-32.6l102.9,-12.1c15.7,-1.8 27.8,4.9 31.2,20L246.1,582c2.8,8.9 9.6,8 10.4,-1.3l17.1,-383.4c0.9,-15.6 10.5,-25 26,-26.8l74.5,-8.8c15.6,-1.9 26.8,5 31.1,20.1L504,551.6c2.8,8.9 9.6,8.1 10.5,-1.2l8.4,-382.4c0.1,-15.6 10.4,-25 26,-26.8L652,129c18.2,-2.1 28,7.8 26.5,27.1l-43.6,591.3c-0.9,15.7 -10.5,25 -26,26.7l-122,14.5c-15.6,1.9 -26,-5.1 -31.1,-20.1L384,552c-2.7,-8.7 -9.6,-8 -10.3,1.3L350.2,781c-1.8,15.9 -10.4,25.1 -26.1,26.9l-122,14.3c-15.6,1.9 -26.9,-5 -31.1,-20L1.8,236zM733.3,325.2c4.5,-60.9 29.1,-225.7 234.2,-249.8C1172.5,51.2 1172.2,213 1167.6,274L1150,504.6c-4.6,61 -29.1,225.7 -234.2,250C710.7,778.8 711,616.8 715.6,555.9L733.3,325.2zM868.2,489.3c-5.5,71.2 -4.4,114 59.6,106.4c64.2,-7.5 71.9,-51.4 77.1,-122.4l10.2,-132.9c5.4,-71.1 4.4,-113.9 -59.7,-106.3c-64.1,7.5 -71.7,51.4 -77.2,122.5L868.2,489.3z"/>
</svg>