<svg width="250" height="200" viewBox="0 0 250 200" fill="none" xmlns="http://www.w3.org/2000/svg">
<rect width="250" height="200" fill="#ECE7F5"/>
<path d="M223.555 11.0938L194.412 77.0516" stroke="#F975CA" stroke-width="1.83812" stroke-linecap="round" stroke-linejoin="round"/>
<path d="M195.409 10.6738L222.557 77.477" stroke="#F975CA" stroke-width="1.83812" stroke-linecap="round" stroke-linejoin="round"/>
<path d="M242.274 57.8616L175.692 30.2812" stroke="#F975CA" stroke-width="1.83812" stroke-linecap="round" stroke-linejoin="round"/>
<path d="M242.024 29.6875L175.942 58.4506" stroke="#F975CA" stroke-width="1.83812" stroke-linecap="round" stroke-linejoin="round"/>
<path d="M245.015 44.0762H172.952" stroke="#F975CA" stroke-width="1.83812" stroke-linecap="round" stroke-linejoin="round"/>
<path d="M235.608 19.7793L182.359 68.3661" stroke="#F975CA" stroke-width="1.83812" stroke-linecap="round" stroke-linejoin="round"/>
<path d="M233.447 70.5473L184.519 17.5996" stroke="#F975CA" stroke-width="1.83812" stroke-linecap="round" stroke-linejoin="round"/>
<path d="M208.981 8.01367V80.1319" stroke="#F975CA" stroke-width="1.83812" stroke-linecap="round" stroke-linejoin="round"/>
<mask id="mask0_3939_5376" style="mask-type:luminance" maskUnits="userSpaceOnUse" x="0" y="0" width="250" height="200">
<path d="M250 200V13.5042C250 6.04738 244.598 0 237.938 0H12.0622C5.40163 0 0 6.04738 0 13.5042V200H250Z" fill="white"/>
</mask>
<g mask="url(#mask0_3939_5376)">
<path d="M226.605 89.5389L221.544 89.0859L221.997 84.0207C223.25 69.9899 212.906 57.6019 198.886 56.3437C184.867 55.089 172.489 65.4423 171.231 79.4732L170.779 84.5384L148.347 82.5288L148.8 77.4636C150.053 63.4328 139.708 51.0448 125.689 49.7866C111.669 48.532 99.2913 58.8852 98.0341 72.9161L97.5816 77.9813L92.5205 77.5284C78.501 76.2738 66.123 86.627 64.8658 100.658C63.6122 114.689 73.9571 127.077 87.9766 128.335L93.0377 128.788L91.0298 151.238L85.9687 150.785C71.9492 149.53 59.5713 159.884 58.3141 173.915C57.0605 187.945 67.4054 200.333 81.4249 201.592L86.486 202.045L86.0334 207.11C84.7798 221.141 95.1246 233.529 109.144 234.787C123.164 236.041 135.542 225.688 136.799 211.657L137.251 206.592L159.683 208.602L159.231 213.667C157.977 227.698 168.322 240.086 182.341 241.344C196.361 242.599 208.739 232.245 209.996 218.214L210.449 213.149L215.51 213.602C229.529 214.857 241.907 204.504 243.164 190.473C244.418 176.442 234.073 164.054 220.054 162.796L214.992 162.343L217 139.893L222.062 140.345C236.081 141.6 248.459 131.247 249.716 117.216C250.97 103.185 240.625 90.7971 226.605 89.5389Z" fill="#200020"/>
<path d="M130.8 100.247C125.078 99.0316 120.473 104.934 123.023 110.205C125.717 115.773 130.858 120.08 137.377 121.464C143.896 122.848 150.34 121.004 155.064 117.013C159.532 113.239 157.722 105.97 152.004 104.755L130.804 100.247H130.8Z" fill="#ECE7F5"/>
<path d="M138.437 96.0356L136.968 97.0889C136.763 97.2327 136.486 97.2147 136.353 97.0457C136.138 96.7941 135.947 96.5029 135.707 96.3016C135.01 95.5754 134.205 95.0542 133.343 94.8636C132.488 94.6731 131.558 94.7378 130.664 95.1045C130.348 95.2195 130.042 95.3813 129.762 95.5502C129.586 95.6545 129.378 95.5647 129.23 95.3597L128.117 93.9361C127.97 93.7348 128.085 93.3933 128.336 93.2423C128.771 92.9799 129.205 92.7571 129.676 92.5809C130.976 92.0489 132.517 91.8906 133.972 92.2286C135.437 92.5629 136.691 93.4185 137.628 94.3963C137.966 94.6947 138.207 95.047 138.487 95.3813C138.663 95.6006 138.641 95.899 138.437 96.0428V96.0356Z" fill="#ECE7F5"/>
<path d="M156.023 99.7699L154.554 100.823C154.349 100.967 154.072 100.949 153.939 100.78C153.724 100.528 153.534 100.237 153.293 100.036C152.596 99.3098 151.791 98.7886 150.929 98.598C150.075 98.4075 149.144 98.4722 148.25 98.8389C147.934 98.9539 147.628 99.1157 147.348 99.2846C147.172 99.3889 146.964 99.299 146.817 99.0941L145.703 97.6705C145.556 97.4692 145.671 97.1277 145.922 96.9767C146.357 96.7143 146.791 96.4914 147.262 96.3152C148.562 95.7832 150.103 95.625 151.558 95.963C153.024 96.2973 154.277 97.1529 155.215 98.1271C155.552 98.4255 155.793 98.7778 156.073 99.1121C156.249 99.3314 156.228 99.6297 156.023 99.7735V99.7699Z" fill="#ECE7F5"/>
<path d="M129.525 117.972C131.799 119.622 134.446 120.837 137.373 121.463C143.893 122.847 150.337 121.003 155.06 117.012C142.104 104.682 129.701 115.959 129.525 117.972Z" fill="#DA0081"/>
<path d="M140.692 117.133L139.18 116.144C138.972 116.008 138.932 115.72 139.094 115.501L139.845 114.494C140.204 114.03 140.66 113.624 141.07 113.189C141.49 112.765 142.014 112.427 142.488 112.05C143.006 111.722 143.552 111.424 144.108 111.158C144.694 110.953 145.261 110.684 145.876 110.586C148.311 110.022 150.811 110.418 152.988 111.305C153.415 111.482 153.835 111.676 154.252 111.899C154.5 112.032 154.619 112.341 154.489 112.556L153.512 114.077C153.383 114.289 153.157 114.39 152.966 114.286C152.647 114.117 152.309 113.959 151.964 113.818C150.19 113.089 148.239 112.815 146.483 113.232C144.701 113.595 143.16 114.731 141.939 116.22L141.321 117.057C141.188 117.237 140.908 117.273 140.696 117.136L140.692 117.133Z" fill="#ECE7F5"/>
<path d="M145.042 81.6022C145.042 81.6022 136.824 68.3119 142.258 59.7705C142.84 58.8574 143.469 58.0269 144.133 57.2756C154.873 45.186 175.836 53.634 176.583 67.6325C177.068 76.7599 168.631 85.0066 168.631 85.0066C168.631 85.0066 156.03 87.9292 145.042 81.6022Z" fill="#C29CFF" stroke="#200020" stroke-width="1.86036" stroke-linecap="round" stroke-linejoin="round"/>
<path d="M150.517 52.7441C150.517 52.7441 154.791 65.2903 164.691 66.66" stroke="#200020" stroke-width="1.86036" stroke-linecap="round" stroke-linejoin="round"/>
<path d="M153.358 69.6324C153.358 69.6324 144.288 64.8871 144.134 57.2695" stroke="#200020" stroke-width="1.86036" stroke-linecap="round" stroke-linejoin="round"/>
<path d="M141.608 73.8672C141.608 73.8672 145.484 80.6364 174.216 78.2997L171.616 86.133C171.616 86.133 152.647 88.6206 142.086 82.0707L141.608 73.8708V73.8672Z" fill="#5A9EFB" stroke="#200020" stroke-width="1.86036" stroke-linecap="round" stroke-linejoin="round"/>
<path d="M141.421 70.6734C141.421 70.6734 166.86 70.7165 173.911 59.957" stroke="#200020" stroke-width="1.86036" stroke-linecap="round" stroke-linejoin="round"/>
<path d="M175.904 70.291C175.904 70.291 164.769 75.5072 151.892 76.4491" stroke="#200020" stroke-width="1.86036" stroke-linecap="round" stroke-linejoin="round"/>
<path d="M163.268 78.8062L158.358 82.5305L158.609 88.6921L153.552 85.1727L147.772 87.3153L149.557 81.4125L145.732 76.5738L151.896 76.448L155.308 71.3145L157.334 77.1418L163.268 78.8062Z" fill="#FFD039" stroke="#200020" stroke-width="2.03729" stroke-linecap="round" stroke-linejoin="round"/>
<path d="M69.086 82.8124L65.3899 52.1336C65.2534 51.0084 64.2333 50.2067 63.109 50.3433L44.4199 52.5973C43.2956 52.7339 42.4946 53.7549 42.6311 54.8801L44.0464 66.6246C45.1455 68.7779 45.1455 71.8264 45.1455 71.8264C45.1455 71.8264 55.1779 67.3256 58.637 71.4813C60.749 74.0193 62.5486 80.9215 60.7706 85.8824L67.2936 85.0951C68.4179 84.9585 69.2189 83.9376 69.0824 82.8124H69.086Z" fill="#DA0081"/>
<path d="M52.9368 53.6366L52.204 56.6132C51.9023 57.8355 52.2902 59.1261 53.2134 59.9816L55.4584 62.0631C55.6272 62.2213 55.4763 62.4981 55.2536 62.4441L52.2794 61.7108C51.0582 61.4088 49.7687 61.7971 48.9138 62.7209L46.834 64.9678C46.676 65.1367 46.3994 64.9857 46.4533 64.7629L47.186 61.7863C47.4877 60.564 47.0998 59.2735 46.1767 58.4179L43.9317 56.3364C43.7629 56.1782 43.9137 55.9015 44.1364 55.9554L47.1106 56.6887C48.3319 56.9907 49.6214 56.6025 50.4763 55.6786L52.556 53.4318C52.7141 53.2628 52.9907 53.4138 52.9368 53.6366Z" fill="white"/>
<path d="M51.3098 88.0532L53.0195 88.1575C53.2566 88.1718 53.4398 88.3696 53.4362 88.5924L53.4039 89.6314C53.3931 90.7278 53.4542 91.8171 53.5907 92.8848C53.6517 93.4204 53.781 93.9381 53.8708 94.4665C53.9355 94.7254 54.0109 94.977 54.0828 95.2322C54.1582 95.4839 54.2121 95.7463 54.3162 95.9872L54.5928 96.7241C54.6754 96.9757 54.8155 97.195 54.9197 97.4323C55.128 97.9104 55.4226 98.3346 55.6848 98.7804C56.2739 99.6252 56.9563 100.391 57.743 101.056C59.3414 102.357 61.299 103.238 63.3896 103.709C65.4801 104.183 67.6892 104.317 69.8587 104.166C70.2323 104.14 70.6059 104.104 70.9686 104.058C71.1878 104.029 71.3745 104.194 71.4105 104.428L71.705 106.114C71.7409 106.348 71.5469 106.574 71.2991 106.606C70.8752 106.657 70.4622 106.7 70.0455 106.729C67.6353 106.894 65.2107 106.754 62.8149 106.215C60.4298 105.679 58.077 104.647 56.105 103.037C55.1316 102.217 54.2767 101.261 53.5548 100.215C53.2243 99.6719 52.8723 99.1434 52.6172 98.5683C52.4879 98.2843 52.3227 98.0075 52.2221 97.7127L51.8917 96.8355C51.7695 96.5444 51.7049 96.2424 51.6151 95.944C51.5325 95.6456 51.4427 95.3473 51.3708 95.0453C51.2631 94.4414 51.1194 93.8374 51.0475 93.2335C50.8895 92.022 50.8248 90.8105 50.8356 89.6062L50.8715 88.4702C50.8787 88.2222 51.0763 88.0352 51.3133 88.0496L51.3098 88.0532Z" fill="#200020"/>
<path d="M52.154 92.2201L52.172 90.5054C52.1755 90.2681 52.3516 90.0704 52.5635 90.0632L53.1023 90.0488C53.1921 90.0488 53.2783 90.038 53.3681 90.0272L53.501 90.0129L53.7883 89.9805L54.1439 89.941L54.4852 89.8655C55.4011 89.6821 56.2632 89.3622 57.0032 88.8697C57.7395 88.3808 58.3609 87.7373 58.8387 86.968C59.8013 85.4258 60.1928 83.4558 60.2108 81.4786C60.2252 79.4978 59.8983 77.4667 59.2805 75.5722C58.968 74.6339 58.5836 73.7028 58.0951 72.9299L57.9119 72.6459L57.718 72.3907C57.6533 72.2972 57.5887 72.2433 57.5276 72.1714C57.4665 72.1031 57.4055 72.0348 57.3265 71.9809C57.0535 71.7328 56.7122 71.5387 56.3279 71.3949C55.5628 71.0929 54.6253 70.9923 53.6662 71.0139C52.7036 71.0319 51.7086 71.1792 50.7208 71.3877C49.733 71.5998 48.7416 71.8766 47.7682 72.2074L47.4054 72.3332L47.2222 72.3979L46.8846 72.5237L46.5254 72.6567L46.1482 72.8077C45.8968 72.9048 45.6417 73.0198 45.3867 73.1312L44.6144 73.4728L44.2301 73.6417L44.0397 73.728L43.9463 73.7711C43.9212 73.7747 43.8673 73.8251 43.8817 73.7711L43.8673 72.0276C43.8637 71.6394 43.8457 71.2655 43.8134 70.9024L43.756 70.356L43.72 70.09C43.6733 69.7592 43.6159 69.4357 43.544 69.1158C43.4039 68.4795 43.2136 67.8647 42.9621 67.3363C42.8328 67.0738 42.6927 66.833 42.5383 66.6245C42.3802 66.4232 42.215 66.2578 42.0462 66.1356C41.8738 66.0134 41.7049 65.9271 41.5074 65.8876C41.3098 65.8444 41.1015 65.8264 40.9075 65.8552C40.1317 65.9307 39.2085 66.8402 38.5296 67.9294C37.8328 69.0259 37.2724 70.2949 36.7947 71.5999C35.8428 74.2205 35.1747 77.003 34.6323 79.8034C34.4958 80.5044 34.3737 81.209 34.2624 81.9172L33.9175 84.0382C33.7343 85.4581 33.5224 86.8745 33.4003 88.2981C32.8148 93.9852 32.8399 99.7262 33.6194 105.349C34.4025 110.971 36.0296 116.468 38.5943 121.504C39.873 124.021 41.3709 126.426 43.0771 128.676C44.7904 130.919 46.705 133.011 48.7739 134.938C52.9334 138.778 57.7144 141.937 62.8293 144.425C67.9443 146.916 73.3754 148.782 78.9358 150.033C80.3259 150.346 81.7232 150.616 83.1204 150.835L83.688 150.921L84.4566 151.025C84.6793 151.054 84.8374 151.263 84.8086 151.496L84.647 153.2C84.6183 153.434 84.392 153.603 84.1477 153.574L83.3252 153.463L82.7253 153.373C81.2598 153.143 79.8122 152.862 78.3718 152.542C72.6211 151.248 67.014 149.325 61.7015 146.737C56.3925 144.156 51.3961 140.859 47.0282 136.829C44.8551 134.805 42.84 132.602 41.0332 130.236C39.2372 127.863 37.6532 125.325 36.3062 122.672C33.605 117.363 31.8988 111.579 31.0799 105.715C30.2645 99.8485 30.2429 93.8989 30.8464 88.05C30.9721 86.5833 31.1876 85.1274 31.378 83.6715L31.73 81.4966C31.845 80.7704 31.9707 80.0478 32.1108 79.3253C32.6747 76.435 33.3572 73.5555 34.3845 70.7227C34.9053 69.3099 35.5124 67.9043 36.3709 66.549C36.8091 65.8768 37.3012 65.2081 37.9657 64.6114C38.2926 64.3094 38.6769 64.0362 39.1007 63.7989C39.539 63.5724 40.0275 63.3963 40.5519 63.3208C41.0763 63.2453 41.6044 63.2813 42.1108 63.3999C42.6245 63.5149 43.1202 63.7522 43.5368 64.0506C43.9571 64.349 44.3019 64.7084 44.5893 65.0787C44.8695 65.4526 45.0922 65.8408 45.2825 66.2291C45.6525 67.0092 45.8896 67.7928 46.0584 68.5693C46.1446 68.9576 46.2129 69.3458 46.2667 69.7341L46.3027 70.0073L46.9528 69.7772C48.0089 69.4213 49.0828 69.1158 50.1892 68.8821C51.2955 68.652 52.427 68.4795 53.6087 68.4543C54.7833 68.4328 56.0226 68.5298 57.2582 69.0079C57.8724 69.2416 58.4831 69.5831 59.0075 70.0468C59.144 70.1547 59.2661 70.2805 59.3846 70.4099C59.5032 70.5357 59.6325 70.6687 59.7223 70.7946L60.0132 71.1792L60.2647 71.5675C60.9184 72.61 61.3459 73.6813 61.7158 74.7705C62.4235 76.949 62.7898 79.2066 62.7755 81.5109C62.7647 82.6613 62.6462 83.8261 62.3768 84.98C62.1038 86.1304 61.6727 87.2807 61.0154 88.334C60.3652 89.3873 59.4709 90.3256 58.4184 91.0194C57.366 91.7168 56.1806 92.1518 55.0024 92.3855L54.5606 92.479L54.1188 92.5329L53.7596 92.576L53.5944 92.594C53.4866 92.6048 53.3753 92.6228 53.2675 92.6192L52.6174 92.6371C52.3587 92.6443 52.1504 92.4574 52.154 92.2201Z" fill="#200020"/>
<path d="M119.428 158.943L125.178 166.194" stroke="#200020" stroke-width="1.88638" stroke-linecap="round" stroke-linejoin="round"/>
<path d="M119.428 164.988L125.178 159.549" stroke="#200020" stroke-width="1.88638" stroke-linecap="round" stroke-linejoin="round"/>
<path d="M141.145 189.694C141.145 189.694 138.286 193.303 141.935 194.676C145.103 195.866 145.883 193.166 145.883 193.166C145.883 193.166 146.328 196.589 149.385 195.564C152.442 194.539 152.783 191.674 152.783 191.674C152.783 191.674 153.598 194.813 156.493 193.993C159.388 193.173 158.9 190.772 158.9 190.772C158.9 190.772 159.755 194.04 162.761 192.889C165.768 191.739 164.629 189.694 164.629 189.694C164.629 189.694 166.795 190.661 168.185 189.41C169.575 188.159 168.756 185.074 166.748 185.178C164.234 185.308 141.145 189.697 141.145 189.697V189.694Z" fill="#C29CFF" stroke="#200020" stroke-width="1.88638" stroke-linecap="round" stroke-linejoin="round"/>
<path d="M139.46 162.271C139.384 162.404 141.633 189.599 141.633 189.599L166.324 185.972L161.906 159.988L139.46 162.271Z" fill="#5A9EFB" stroke="#200020" stroke-width="1.88638" stroke-linecap="round" stroke-linejoin="round"/>
<path d="M87.9803 128.33C87.9803 128.33 141.684 155.45 217.001 139.888C217.001 139.888 224.612 149.587 214.993 162.338C205.373 175.089 122.514 177.832 91.0335 151.233C91.0335 151.233 81.9853 143.209 87.9803 128.33Z" fill="#5A9EFB" stroke="#200020" stroke-width="1.88638" stroke-linecap="round" stroke-linejoin="round"/>
<path d="M109.503 189.189C109.503 189.189 105.545 191.541 108.465 194.125C111.001 196.368 112.693 194.125 112.693 194.125C112.693 194.125 111.888 197.483 115.107 197.616C118.325 197.749 119.668 195.2 119.668 195.2C119.668 195.2 119.309 198.421 122.305 198.691C125.301 198.96 125.703 196.541 125.703 196.541C125.703 196.541 125.333 199.899 128.555 199.899C131.777 199.899 131.439 197.584 131.439 197.584C131.439 197.584 133.117 199.262 134.862 198.59C136.608 197.918 136.942 194.747 135.031 194.125C132.635 193.349 109.503 189.189 109.503 189.189Z" fill="#C29CFF" stroke="#200020" stroke-width="1.88638" stroke-linecap="round" stroke-linejoin="round"/>
<path d="M162.38 144.575C162.38 144.575 140.764 130.379 126.575 147.9C112.387 165.425 108.461 189.594 108.461 189.594L135.027 194.127C135.027 194.127 141.748 143.666 162.38 144.575Z" fill="#5A9EFB" stroke="#200020" stroke-width="1.88638" stroke-linecap="round" stroke-linejoin="round"/>
<path d="M116.813 178.717L117.453 177.16" stroke="#7BECFF" stroke-width="1.88638" stroke-linecap="round" stroke-linejoin="round"/>
<path d="M126.271 174.787L126.91 173.23" stroke="#7BECFF" stroke-width="1.88638" stroke-linecap="round" stroke-linejoin="round"/>
<path d="M127.84 183.137L128.48 181.58" stroke="#7BECFF" stroke-width="1.88638" stroke-linecap="round" stroke-linejoin="round"/>
<path d="M136.86 167.053L137.496 165.5" stroke="#7BECFF" stroke-width="1.88638" stroke-linecap="round" stroke-linejoin="round"/>
<path d="M126.59 163.821L127.23 162.268" stroke="#7BECFF" stroke-width="1.88638" stroke-linecap="round" stroke-linejoin="round"/>
<path d="M136.54 157.666L137.18 156.113" stroke="#7BECFF" stroke-width="1.88638" stroke-linecap="round" stroke-linejoin="round"/>
<path d="M134.126 150.171L134.766 149.875" stroke="#7BECFF" stroke-width="1.88638" stroke-linecap="round" stroke-linejoin="round"/>
<path d="M142.7 148.786L143.34 148.494" stroke="#7BECFF" stroke-width="1.88638" stroke-linecap="round" stroke-linejoin="round"/>
<path d="M145.085 174.793L145.488 175.44" stroke="#7BECFF" stroke-width="1.88638" stroke-linecap="round" stroke-linejoin="round"/>
<path d="M151.795 180.271L151.929 180.811" stroke="#7BECFF" stroke-width="1.88638" stroke-linecap="round" stroke-linejoin="round"/>
<path d="M158.369 175.109L158.638 175.972" stroke="#7BECFF" stroke-width="1.88638" stroke-linecap="round" stroke-linejoin="round"/>
<path d="M159.173 181.58L159.443 182.443" stroke="#7BECFF" stroke-width="1.88638" stroke-linecap="round" stroke-linejoin="round"/>
<path d="M154.015 163.041H155.55" stroke="#7BECFF" stroke-width="1.88638" stroke-linecap="round" stroke-linejoin="round"/>
<path d="M163.038 166.633L164.943 166.841" stroke="#7BECFF" stroke-width="1.88638" stroke-linecap="round" stroke-linejoin="round"/>
<path d="M173.933 162.267L175.277 161.605" stroke="#7BECFF" stroke-width="1.88638" stroke-linecap="round" stroke-linejoin="round"/>
<path d="M181.447 165.5H181.58" stroke="#7BECFF" stroke-width="1.88638" stroke-linecap="round" stroke-linejoin="round"/>
<path d="M193.926 159.984L195.267 159.053" stroke="#7BECFF" stroke-width="1.88638" stroke-linecap="round" stroke-linejoin="round"/>
<path d="M199.827 161.932L200.768 161.332" stroke="#7BECFF" stroke-width="1.88638" stroke-linecap="round" stroke-linejoin="round"/>
<path d="M210.563 157.666L212.844 157.443" stroke="#7BECFF" stroke-width="1.88638" stroke-linecap="round" stroke-linejoin="round"/>
<path d="M112.482 156.89L111.677 156.113" stroke="#7BECFF" stroke-width="1.88638" stroke-linecap="round" stroke-linejoin="round"/>
<path d="M107.388 150.171L106.712 149.875" stroke="#7BECFF" stroke-width="1.88638" stroke-linecap="round" stroke-linejoin="round"/>
<path d="M99.4681 150.173L98.3933 150.025" stroke="#7BECFF" stroke-width="1.88638" stroke-linecap="round" stroke-linejoin="round"/>
<path d="M95.574 144.952L95.1714 144.818" stroke="#7BECFF" stroke-width="1.88638" stroke-linecap="round" stroke-linejoin="round"/>
<path d="M91.1484 139.718L90.7458 139.143" stroke="#7BECFF" stroke-width="1.88638" stroke-linecap="round" stroke-linejoin="round"/>
<path d="M0.440739 136.231C0.440739 136.231 24.4838 148.1 20.7393 168.417C16.9952 188.73 0.109969 178.069 12.4953 168.533C16.9556 165.097 37.6028 162.506 40.1493 182.465C42.699 202.424 48.3459 210.302 60.6433 207.094" stroke="#200020" stroke-width="2.39953" stroke-linecap="round" stroke-linejoin="round"/>
<path d="M68.8604 30.4531L73.9609 35.5576" stroke="#DA0081" stroke-width="2.35964" stroke-linecap="round" stroke-linejoin="round"/>
<path d="M84.0962 45.7031L89.1966 50.8076" stroke="#DA0081" stroke-width="2.35964" stroke-linecap="round" stroke-linejoin="round"/>
<path d="M89.1966 30.4531L84.0962 35.5576" stroke="#DA0081" stroke-width="2.35964" stroke-linecap="round" stroke-linejoin="round"/>
<path d="M73.9609 45.7031L68.8604 50.8076" stroke="#DA0081" stroke-width="2.35964" stroke-linecap="round" stroke-linejoin="round"/>
</g>
</svg>
