<svg width="375" height="280" viewBox="0 0 375 280" fill="none" xmlns="http://www.w3.org/2000/svg">
<g clip-path="url(#clip0_2789_10993)">
<path d="M159.085 280.05C184.552 280.05 205.196 277.716 205.196 274.837C205.196 271.957 184.552 269.623 159.085 269.623C133.618 269.623 112.974 271.957 112.974 274.837C112.974 277.716 133.618 280.05 159.085 280.05Z" fill="#CBC1E0"/>
<path opacity="0.3" d="M86.0218 145.172C105.211 145.172 120.766 129.617 120.766 110.428C120.766 91.2392 105.211 75.6836 86.0218 75.6836C66.8329 75.6836 51.2773 91.2392 51.2773 110.428C51.2773 129.617 66.8329 145.172 86.0218 145.172Z" fill="#7BECFF" stroke="#200020" stroke-width="3.00372" stroke-linecap="round" stroke-linejoin="round"/>
<path d="M70.4496 213.106L77.8241 100.592C78.8286 85.2671 92.0826 73.6436 107.407 74.648L239.887 83.3312C255.212 84.3357 266.836 97.5897 265.831 112.914L258.457 225.428C257.452 240.753 244.198 252.376 228.873 251.372L96.3933 242.689C81.0686 241.684 69.4452 228.43 70.4496 213.106Z" fill="#DA0081"/>
<path d="M94.7241 76.7852C85.3568 80.7586 78.5169 89.7398 77.8089 100.587L75.0068 143.39C78.4697 144.549 82.1728 145.176 86.0262 145.176C105.216 145.176 120.771 129.621 120.771 110.431C120.771 94.2496 109.708 80.6514 94.7284 76.7852H94.7241Z" fill="#5A9EFB"/>
<path opacity="0.3" d="M114.935 91.166L56.6201 128.949C58.1391 131.351 59.9414 133.557 61.9839 135.514L118.746 98.7397C117.784 96.0449 116.497 93.5046 114.935 91.166Z" fill="white"/>
<path opacity="0.3" d="M95.4839 76.9922L51.6382 105.399C51.3979 107.042 51.2734 108.724 51.2734 110.432C51.2734 114.569 51.9986 118.538 53.3246 122.215L110.125 85.4155C106.066 81.5021 101.058 78.567 95.4796 76.9922H95.4839Z" fill="white"/>
<path d="M86.0218 145.172C105.211 145.172 120.766 129.617 120.766 110.428C120.766 91.2392 105.211 75.6836 86.0218 75.6836C66.8329 75.6836 51.2773 91.2392 51.2773 110.428C51.2773 129.617 66.8329 145.172 86.0218 145.172Z" stroke="#200020" stroke-width="3.00372" stroke-linecap="round" stroke-linejoin="round"/>
<path d="M70.4375 213.099C47.3132 213.099 33.8737 179.423 64.1855 165.537" stroke="#200020" stroke-width="3.00372" stroke-linecap="round" stroke-linejoin="round"/>
<path d="M70.4372 221.837C70.4372 221.837 39.4988 221.897 40.0052 196.713C40.5115 171.529 49.6686 168.379 49.6686 168.379L73.6769 184.693L70.4372 221.837Z" fill="#C29CFF" stroke="#200020" stroke-width="3.00372" stroke-linecap="round" stroke-linejoin="round"/>
<path d="M76.1269 151.818C76.1269 151.818 65.0775 151.801 64.1807 165.537C63.2838 179.272 72.5439 181.959 79.1134 181.066C85.683 180.169 84.7862 173.394 82.9968 172.497C82.9968 172.497 88.5194 169.382 84.6403 161.804C84.6403 161.804 89.5664 151.818 76.1312 151.818H76.1269Z" stroke="#200020" stroke-width="3.00372" stroke-linecap="round" stroke-linejoin="round"/>
<path d="M78.3672 161.752L84.6364 161.803" stroke="#200020" stroke-width="3.00372" stroke-linecap="round" stroke-linejoin="round"/>
<path d="M82.997 172.496H77.7705" stroke="#200020" stroke-width="3.00372" stroke-linecap="round" stroke-linejoin="round"/>
<path d="M260.903 197.78L296.875 188.786C296.875 188.786 304.937 179.792 308.349 181.963C311.76 184.134 306.8 193.128 306.8 193.128C306.8 193.128 322.307 199.329 321.994 202.431C321.681 205.534 312.069 202.431 312.069 202.431C312.069 202.431 320.441 211.425 318.27 212.665C316.098 213.906 308.658 210.803 308.658 210.803C308.658 210.803 314.24 217.935 312.069 219.488C309.898 221.037 301.526 215.768 301.526 215.768L254.81 229.413" stroke="#200020" stroke-width="3.00372" stroke-linecap="round" stroke-linejoin="round"/>
<path d="M150.537 77.4685V17.1753C156.081 9.66597 188.71 13.249 194.838 20.3249L187.466 79.8886L150.537 77.4685Z" stroke="#200020" stroke-width="3.00372" stroke-linecap="round" stroke-linejoin="round"/>
<path d="M206.471 81.8482C206.705 77.4251 190.426 72.9678 170.112 71.8925C149.797 70.8172 133.139 73.5311 132.905 77.9542C132.671 82.3773 148.95 86.8346 169.264 87.9099C189.579 88.9852 206.237 86.2713 206.471 81.8482Z" stroke="#200020" stroke-width="3.00372" stroke-linecap="round" stroke-linejoin="round"/>
<path d="M191.607 81.047C176.223 83.4243 161.299 82.8621 146.933 78.687L147.619 65.668C162.355 70.3023 177.249 71.0103 192.293 68.028L191.607 81.047Z" fill="#7BECFF" stroke="#200020" stroke-width="3.00372" stroke-linecap="round" stroke-linejoin="round"/>
<path d="M169.654 25.436C166.028 26.2899 150.537 23.2347 150.537 17.1758" stroke="#200020" stroke-width="3.00372" stroke-linecap="round" stroke-linejoin="round"/>
<path d="M179.36 24.8178C179.36 24.8178 182.793 24.5689 185.273 23.2344" stroke="#200020" stroke-width="3.00372" stroke-linecap="round" stroke-linejoin="round"/>
<path d="M257.998 192.991C257.998 192.991 215.907 207.675 218.147 266.115C218.147 266.115 262.928 274.126 270.845 261.536C278.766 248.942 270.845 244.848 270.845 244.848C270.845 244.848 279.049 235.786 271.896 229.414L297.939 221.87C297.939 221.87 285.919 201.87 289.64 186.988L257.998 193V192.991Z" fill="#C29CFF" stroke="#200020" stroke-width="3.00372" stroke-linecap="round" stroke-linejoin="round"/>
<path d="M242.129 246.221C242.129 246.221 254.723 248.225 260.73 246.221H242.129Z" fill="#C29CFF"/>
<path d="M242.129 246.221C242.129 246.221 254.723 248.225 260.73 246.221" stroke="#200020" stroke-width="3.00372" stroke-linecap="round" stroke-linejoin="round"/>
<path d="M244.992 225.615C244.992 225.615 256.153 228.477 262.448 227.332L244.992 225.615Z" fill="#C29CFF"/>
<path d="M244.992 225.615C244.992 225.615 256.153 228.477 262.448 227.332" stroke="#200020" stroke-width="3.00372" stroke-linecap="round" stroke-linejoin="round"/>
<path d="M73.4247 189.318C73.4247 189.318 62.7057 192.013 65.9197 205.517C66.8337 209.366 65.8553 212.64 65.8553 212.64C65.8553 212.64 59.9767 227.474 67.5589 235.202C67.5589 235.202 53.0209 257.936 99.5657 257.67C99.5657 257.67 99.5657 227.805 89.1642 205.517C89.1642 205.517 84.2982 197.089 73.4247 189.318Z" fill="#C29CFF" stroke="#200020" stroke-width="3.00372" stroke-linecap="round" stroke-linejoin="round"/>
<path d="M81.5039 216.46C81.5039 216.46 68.8754 217.408 65.8545 212.641L81.5039 216.46Z" fill="#C29CFF"/>
<path d="M81.5039 216.46C81.5039 216.46 68.8754 217.408 65.8545 212.641" stroke="#200020" stroke-width="3.00372" stroke-linecap="round" stroke-linejoin="round"/>
<path d="M76.4277 236.635C76.4277 236.635 78.8264 237.78 84.6365 236.635H76.4277Z" fill="#C29CFF"/>
<path d="M76.4277 236.635C76.4277 236.635 78.8264 237.78 84.6365 236.635" stroke="#200020" stroke-width="3.00372" stroke-linecap="round" stroke-linejoin="round"/>
<path d="M75.0027 143.983L73.6768 151.814C73.6768 151.814 77.912 151.329 79.7958 151.814L80.9415 145.167L74.9984 143.979L75.0027 143.983Z" fill="#200020" stroke="#200020" stroke-width="3.00372" stroke-linecap="round" stroke-linejoin="round"/>
<path d="M111.184 120.709C113.794 120.709 115.909 117.783 115.909 114.174C115.909 110.565 113.794 107.639 111.184 107.639C108.575 107.639 106.46 110.565 106.46 114.174C106.46 117.783 108.575 120.709 111.184 120.709Z" fill="#200020"/>
<path d="M143.994 123.194C146.603 123.194 148.718 120.268 148.718 116.658C148.718 113.049 146.603 110.123 143.994 110.123C141.385 110.123 139.27 113.049 139.27 116.658C139.27 120.268 141.385 123.194 143.994 123.194Z" fill="#200020"/>
<path d="M122.428 139.705C122.428 139.705 131.992 140.739 134.653 134.088" stroke="#200020" stroke-width="3.00372" stroke-linecap="round" stroke-linejoin="round"/>
<path d="M296.491 146.615C296.491 146.615 280.12 130.08 286.826 124.665C293.702 119.114 297.971 129.934 297.971 129.934C297.971 129.934 304.084 119.823 310.466 124.76C316.848 129.697 296.495 146.616 296.495 146.616L296.491 146.615Z" stroke="#200020" stroke-width="2.69313" stroke-linecap="round" stroke-linejoin="round"/>
<path d="M0.0309505 241.335C0.0309505 241.335 24.7167 228.11 36.9287 242.497C49.1407 256.884 -2.94786 246.16 14.2141 191.81" stroke="#200020" stroke-width="2.69313" stroke-linecap="round" stroke-linejoin="round"/>
<path d="M77.412 9.63086L64.1514 55.9341M93.9357 39.4114L47.6289 26.1498M84.432 24.9877L57.132 40.5771M78.575 46.4299L62.9894 19.131M57.7122 9.80454L57.6762 9.9303M93.7703 20.1311L93.7342 20.2569M47.7958 44.4306L47.7598 44.5563M83.8539 54.757L83.8179 54.8828" stroke="#200020" stroke-width="2.69313" stroke-linecap="round" stroke-linejoin="round"/>
<path d="M396.151 141.124L388.678 118.464C384.342 105.315 366.75 111.764 355.821 103.045C344.896 94.3241 352.844 83.0062 352.844 83.0062C352.844 83.0062 340.824 89.7394 332.134 77.6418C323.444 65.5443 331.192 54.3382 331.192 54.3382C331.192 54.3382 302.204 70.3855 286.052 48.9857C270.609 28.5284 252.824 27.2471 247.312 36.8497C241.796 46.4537 276.37 45.3244 259.909 0" stroke="#200020" stroke-width="3.07871" stroke-linecap="round" stroke-linejoin="round"/>
</g>
<defs>
<clipPath id="clip0_2789_10993">
<rect width="375" height="280" fill="white"/>
</clipPath>
</defs>
</svg>
