<svg width="333" height="338" viewBox="0 0 333 338" fill="none" xmlns="http://www.w3.org/2000/svg">
<ellipse cx="166.448" cy="295.12" rx="50.4479" ry="5.44304" fill="#C2C2C2"/>
<path d="M130.974 42.5125L130.97 42.5122C113.492 40.9462 98.0547 53.845 96.4888 71.3225L81.5097 238.501C79.9437 255.978 92.8424 271.416 110.32 272.982L110.324 272.982C127.801 274.548 143.239 261.65 144.805 244.172L159.784 76.9937C161.35 59.5163 148.451 44.0785 130.974 42.5125Z" fill="#200020"/>
<path d="M222.228 50.6893L222.224 50.689C204.747 49.123 189.309 62.0218 187.743 79.4993L172.764 246.678C171.198 264.155 184.097 279.593 201.574 281.159L201.578 281.159C219.055 282.725 234.493 269.826 236.059 252.349L251.038 85.1705C252.604 67.6931 239.705 52.2553 222.228 50.6893Z" fill="#200020"/>
<path d="M285.477 126.366L285.477 126.362C287.043 108.885 274.144 93.4468 256.667 91.8809L89.4883 76.9018C72.0109 75.3358 56.5731 88.2345 55.0071 105.712L55.0068 105.716C53.4408 123.193 66.3396 138.631 83.8171 140.197L250.996 155.176C268.473 156.742 283.911 143.843 285.477 126.366Z" fill="#200020"/>
<path d="M275.849 233.868L278.761 201.371C279.523 192.867 273.246 185.354 264.741 184.592L65.0699 166.702C56.5652 165.94 49.053 172.217 48.291 180.721L45.3792 213.218C44.6172 221.723 50.8939 229.235 59.3987 229.997L259.07 247.888C267.575 248.65 275.087 242.373 275.849 233.868Z" fill="#200020"/>
<path d="M194.243 139.979L137.742 134.917L132.68 191.418L189.18 196.48L194.243 139.979Z" fill="#200020"/>
<path d="M149.645 123.019C140.92 121.164 133.9 130.162 137.784 138.191C141.895 146.676 149.73 153.235 159.67 155.349C169.61 157.458 179.437 154.652 186.641 148.568C193.455 142.814 190.695 131.74 181.97 129.884L149.641 123.019H149.645Z" fill="#ECE7F5"/>
<path d="M161.292 116.601L159.055 118.206C158.745 118.428 158.33 118.39 158.128 118.126C157.812 117.721 157.487 117.34 157.139 116.992C156.065 115.899 154.841 115.108 153.527 114.807C152.223 114.491 150.801 114.633 149.436 115.169C148.96 115.358 148.485 115.588 148.056 115.852C147.802 116.008 147.453 115.885 147.251 115.56L145.556 113.389C145.353 113.065 145.499 112.57 145.895 112.33C146.549 111.925 147.227 111.6 147.933 111.318C149.925 110.527 152.265 110.239 154.488 110.781C155.594 111.045 156.645 111.492 157.577 112.071C158.514 112.646 159.338 113.338 160.073 114.082C160.548 114.557 160.981 115.066 161.381 115.579C161.64 115.918 161.598 116.375 161.287 116.596L161.292 116.601Z" fill="#ECE7F5"/>
<path d="M188.112 122.299L185.876 123.904C185.565 124.126 185.15 124.088 184.948 123.824C184.633 123.419 184.308 123.038 183.959 122.689C182.886 121.597 181.661 120.806 180.348 120.505C179.043 120.189 177.621 120.33 176.256 120.867C175.78 121.055 175.305 121.286 174.876 121.55C174.622 121.705 174.274 121.583 174.071 121.258L172.376 119.087C172.174 118.762 172.319 118.268 172.715 118.028C173.369 117.623 174.047 117.298 174.754 117.015C176.746 116.224 179.086 115.937 181.308 116.479C182.415 116.742 183.465 117.19 184.397 117.769C185.334 118.343 186.158 119.035 186.893 119.779C187.368 120.255 187.802 120.764 188.202 121.277C188.461 121.616 188.418 122.073 188.108 122.294L188.112 122.299Z" fill="#ECE7F5"/>
<path d="M147.699 150.033C151.17 152.547 155.205 154.402 159.669 155.349C169.609 157.458 179.436 154.652 186.64 148.568C166.877 129.776 147.968 146.963 147.699 150.033Z" fill="#DA0081"/>
<path d="M164.728 148.747L162.42 147.245C162.1 147.038 162.034 146.595 162.27 146.252C162.453 145.993 162.628 145.729 162.821 145.475L163.419 144.721C164.563 143.327 165.9 142.042 167.454 140.997C168.998 139.937 170.778 139.179 172.619 138.751C173.542 138.548 174.479 138.407 175.416 138.379C176.353 138.332 177.286 138.369 178.199 138.487C180.036 138.699 181.797 139.193 183.473 139.871C184.127 140.14 184.763 140.436 185.399 140.775C185.78 140.982 185.94 141.439 185.761 141.778L184.273 144.095C184.095 144.429 183.727 144.566 183.44 144.41C182.955 144.151 182.437 143.907 181.91 143.695C179.197 142.583 176.231 142.164 173.542 142.781C172.2 143.097 170.915 143.633 169.761 144.429C168.598 145.216 167.548 146.209 166.616 147.344L166.126 147.961C165.966 148.168 165.82 148.394 165.665 148.611C165.467 148.893 165.048 148.954 164.728 148.747Z" fill="#ECE7F5"/>
</svg>
