<svg width="220" height="135" viewBox="0 0 220 135" fill="none" xmlns="http://www.w3.org/2000/svg">
<g clip-path="url(#clip0_1883_6901)">
<path d="M68.1585 117.843C67.7686 117.453 67.5402 116.93 67.5192 116.379C67.4982 115.828 67.686 115.289 68.0451 114.87C68.0748 114.836 68.0902 114.791 68.0883 114.745C68.0864 114.699 68.0673 114.656 68.0348 114.624L65.9662 112.553C65.932 112.519 65.8856 112.5 65.8373 112.5C65.7889 112.5 65.7426 112.519 65.7084 112.553L62.4112 115.85C62.2895 115.972 62.1979 116.12 62.1435 116.283V116.283C62.0894 116.447 61.9978 116.595 61.8762 116.718C61.7546 116.84 61.6062 116.932 61.4428 116.986V116.986C61.2794 117.041 61.131 117.132 61.0092 117.254L52.5534 125.708C52.5192 125.742 52.5 125.788 52.5 125.837C52.5 125.885 52.5192 125.932 52.5534 125.966L54.622 128.034C54.6542 128.067 54.6975 128.086 54.7432 128.088C54.789 128.09 54.8337 128.074 54.8685 128.045C55.2871 127.685 55.826 127.497 56.3774 127.518C56.9288 127.539 57.4519 127.767 57.842 128.157C58.2322 128.548 58.4606 129.071 58.4815 129.622C58.5024 130.173 58.3143 130.712 57.9548 131.131C57.9251 131.166 57.9096 131.21 57.9116 131.256C57.9135 131.302 57.9326 131.345 57.9651 131.377L60.0337 133.446C60.0679 133.48 60.1142 133.499 60.1626 133.499C60.2109 133.499 60.2573 133.48 60.2915 133.446L68.7478 124.99C68.8694 124.868 68.961 124.72 69.0154 124.557V124.557C69.0696 124.393 69.1611 124.244 69.2827 124.122C69.4044 124 69.5528 123.908 69.7162 123.854V123.854C69.8794 123.799 70.0277 123.708 70.1493 123.586L73.4465 120.289C73.4807 120.254 73.4999 120.208 73.4999 120.16C73.4999 120.111 73.4807 120.065 73.4465 120.031L71.3779 117.962C71.3457 117.93 71.3024 117.911 71.2566 117.909C71.2109 117.907 71.1662 117.922 71.1313 117.952C70.7133 118.312 70.1748 118.5 69.6236 118.48C69.0725 118.46 68.5492 118.232 68.1585 117.843V117.843Z" stroke="white" stroke-width="1.5" stroke-miterlimit="10"/>
<path d="M62.7427 117.583L61.9688 116.81" stroke="white" stroke-width="1.5" stroke-miterlimit="10" stroke-linecap="round"/>
<path d="M64.8052 119.646L64.2891 119.13" stroke="white" stroke-width="1.5" stroke-miterlimit="10" stroke-linecap="round"/>
<path d="M66.8691 121.71L66.3535 121.194" stroke="white" stroke-width="1.5" stroke-miterlimit="10" stroke-linecap="round"/>
<path d="M69.1899 124.032L68.416 123.258" stroke="white" stroke-width="1.5" stroke-miterlimit="10" stroke-linecap="round"/>
</g>
<path d="M87.338 127.68C86.478 127.68 85.752 127.49 85.16 127.11C84.568 126.726 84.12 126.196 83.816 125.52C83.512 124.844 83.36 124.064 83.36 123.18C83.36 122.296 83.512 121.516 83.816 120.84C84.12 120.164 84.568 119.636 85.16 119.256C85.752 118.872 86.478 118.68 87.338 118.68C88.342 118.68 89.162 118.938 89.798 119.454C90.434 119.966 90.87 120.654 91.106 121.518L90.206 121.752C90.022 121.068 89.692 120.526 89.216 120.126C88.74 119.726 88.114 119.526 87.338 119.526C86.662 119.526 86.1 119.68 85.652 119.988C85.204 120.296 84.866 120.726 84.638 121.278C84.414 121.826 84.298 122.46 84.29 123.18C84.286 123.9 84.396 124.534 84.62 125.082C84.848 125.63 85.188 126.06 85.64 126.372C86.096 126.68 86.662 126.834 87.338 126.834C88.114 126.834 88.74 126.634 89.216 126.234C89.692 125.83 90.022 125.288 90.206 124.608L91.106 124.842C90.87 125.706 90.434 126.396 89.798 126.912C89.162 127.424 88.342 127.68 87.338 127.68ZM95.1358 127.68C94.4918 127.68 93.9418 127.534 93.4858 127.242C93.0298 126.95 92.6798 126.546 92.4358 126.03C92.1918 125.514 92.0698 124.922 92.0698 124.254C92.0698 123.574 92.1938 122.978 92.4418 122.466C92.6898 121.954 93.0418 121.556 93.4978 121.272C93.9578 120.984 94.5038 120.84 95.1358 120.84C95.7838 120.84 96.3358 120.986 96.7918 121.278C97.2518 121.566 97.6018 121.968 97.8418 122.484C98.0858 122.996 98.2078 123.586 98.2078 124.254C98.2078 124.934 98.0858 125.532 97.8418 126.048C97.5978 126.56 97.2458 126.96 96.7858 127.248C96.3258 127.536 95.7758 127.68 95.1358 127.68ZM95.1358 126.834C95.8558 126.834 96.3918 126.596 96.7438 126.12C97.0958 125.64 97.2718 125.018 97.2718 124.254C97.2718 123.47 97.0938 122.846 96.7378 122.382C96.3858 121.918 95.8518 121.686 95.1358 121.686C94.6518 121.686 94.2518 121.796 93.9358 122.016C93.6238 122.232 93.3898 122.534 93.2338 122.922C93.0818 123.306 93.0058 123.75 93.0058 124.254C93.0058 125.034 93.1858 125.66 93.5458 126.132C93.9058 126.6 94.4358 126.834 95.1358 126.834ZM107.259 127.5L107.265 123.246C107.265 122.746 107.125 122.354 106.845 122.07C106.569 121.782 106.217 121.638 105.789 121.638C105.545 121.638 105.307 121.694 105.075 121.806C104.843 121.918 104.651 122.098 104.499 122.346C104.351 122.594 104.277 122.918 104.277 123.318L103.755 123.168C103.743 122.704 103.833 122.298 104.025 121.95C104.221 121.602 104.489 121.332 104.829 121.14C105.173 120.944 105.561 120.846 105.993 120.846C106.645 120.846 107.167 121.048 107.559 121.452C107.951 121.852 108.147 122.394 108.147 123.078L108.141 127.5H107.259ZM99.5254 127.5V121.02H100.317V122.616H100.413V127.5H99.5254ZM103.401 127.5L103.407 123.306C103.407 122.79 103.269 122.384 102.993 122.088C102.721 121.788 102.361 121.638 101.913 121.638C101.465 121.638 101.103 121.792 100.827 122.1C100.551 122.404 100.413 122.81 100.413 123.318L99.8854 123.03C99.8854 122.614 99.9834 122.242 100.179 121.914C100.375 121.582 100.643 121.322 100.983 121.134C101.323 120.942 101.709 120.846 102.141 120.846C102.553 120.846 102.919 120.934 103.239 121.11C103.563 121.286 103.817 121.542 104.001 121.878C104.185 122.214 104.277 122.622 104.277 123.102L104.271 127.5H103.401ZM112.613 127.68C112.017 127.68 111.513 127.53 111.101 127.23C110.689 126.926 110.377 126.516 110.165 126C109.953 125.48 109.847 124.898 109.847 124.254C109.847 123.598 109.953 123.014 110.165 122.502C110.381 121.986 110.697 121.58 111.113 121.284C111.529 120.988 112.041 120.84 112.649 120.84C113.241 120.84 113.749 120.99 114.173 121.29C114.597 121.59 114.921 121.998 115.145 122.514C115.373 123.03 115.487 123.61 115.487 124.254C115.487 124.902 115.373 125.484 115.145 126C114.917 126.516 114.589 126.926 114.161 127.23C113.733 127.53 113.217 127.68 112.613 127.68ZM109.697 130.38V121.02H110.489V125.898H110.585V130.38H109.697ZM112.523 126.858C112.975 126.858 113.351 126.744 113.651 126.516C113.951 126.288 114.175 125.978 114.323 125.586C114.475 125.19 114.551 124.746 114.551 124.254C114.551 123.766 114.477 123.326 114.329 122.934C114.181 122.542 113.955 122.232 113.651 122.004C113.351 121.776 112.969 121.662 112.505 121.662C112.053 121.662 111.677 121.772 111.377 121.992C111.081 122.212 110.859 122.518 110.711 122.91C110.563 123.298 110.489 123.746 110.489 124.254C110.489 124.754 110.563 125.202 110.711 125.598C110.859 125.99 111.083 126.298 111.383 126.522C111.683 126.746 112.063 126.858 112.523 126.858ZM116.805 127.5V121.02H117.597V122.58L117.441 122.376C117.513 122.184 117.607 122.008 117.723 121.848C117.839 121.684 117.965 121.55 118.101 121.446C118.269 121.298 118.465 121.186 118.689 121.11C118.913 121.03 119.139 120.984 119.367 120.972C119.595 120.956 119.803 120.972 119.991 121.02V121.848C119.755 121.788 119.497 121.774 119.217 121.806C118.937 121.838 118.679 121.95 118.443 122.142C118.227 122.31 118.065 122.512 117.957 122.748C117.849 122.98 117.777 123.228 117.741 123.492C117.705 123.752 117.687 124.01 117.687 124.266V127.5H116.805ZM123.718 127.68C123.074 127.68 122.524 127.534 122.068 127.242C121.612 126.95 121.262 126.546 121.018 126.03C120.774 125.514 120.652 124.922 120.652 124.254C120.652 123.574 120.776 122.978 121.024 122.466C121.272 121.954 121.624 121.556 122.08 121.272C122.54 120.984 123.086 120.84 123.718 120.84C124.366 120.84 124.918 120.986 125.374 121.278C125.834 121.566 126.184 121.968 126.424 122.484C126.668 122.996 126.79 123.586 126.79 124.254C126.79 124.934 126.668 125.532 126.424 126.048C126.18 126.56 125.828 126.96 125.368 127.248C124.908 127.536 124.358 127.68 123.718 127.68ZM123.718 126.834C124.438 126.834 124.974 126.596 125.326 126.12C125.678 125.64 125.854 125.018 125.854 124.254C125.854 123.47 125.676 122.846 125.32 122.382C124.968 121.918 124.434 121.686 123.718 121.686C123.234 121.686 122.834 121.796 122.518 122.016C122.206 122.232 121.972 122.534 121.816 122.922C121.664 123.306 121.588 123.75 121.588 124.254C121.588 125.034 121.768 125.66 122.128 126.132C122.488 126.6 123.018 126.834 123.718 126.834ZM131.023 127.68C130.427 127.68 129.923 127.53 129.511 127.23C129.099 126.926 128.787 126.516 128.575 126C128.363 125.48 128.257 124.898 128.257 124.254C128.257 123.598 128.363 123.014 128.575 122.502C128.791 121.986 129.107 121.58 129.523 121.284C129.939 120.988 130.451 120.84 131.059 120.84C131.651 120.84 132.159 120.99 132.583 121.29C133.007 121.59 133.331 121.998 133.555 122.514C133.783 123.03 133.897 123.61 133.897 124.254C133.897 124.902 133.783 125.484 133.555 126C133.327 126.516 132.999 126.926 132.571 127.23C132.143 127.53 131.627 127.68 131.023 127.68ZM128.107 127.5V118.86H128.995V122.622H128.899V127.5H128.107ZM130.933 126.858C131.385 126.858 131.761 126.744 132.061 126.516C132.361 126.288 132.585 125.978 132.733 125.586C132.885 125.19 132.961 124.746 132.961 124.254C132.961 123.766 132.887 123.326 132.739 122.934C132.591 122.542 132.365 122.232 132.061 122.004C131.761 121.776 131.379 121.662 130.915 121.662C130.463 121.662 130.087 121.772 129.787 121.992C129.491 122.212 129.269 122.518 129.121 122.91C128.973 123.298 128.899 123.746 128.899 124.254C128.899 124.754 128.973 125.202 129.121 125.598C129.269 125.99 129.493 126.298 129.793 126.522C130.093 126.746 130.473 126.858 130.933 126.858ZM137.069 127.68C136.581 127.68 136.171 127.592 135.839 127.416C135.511 127.24 135.265 127.006 135.101 126.714C134.937 126.422 134.855 126.104 134.855 125.76C134.855 125.408 134.925 125.108 135.065 124.86C135.209 124.608 135.403 124.402 135.647 124.242C135.895 124.082 136.181 123.96 136.505 123.876C136.833 123.796 137.195 123.726 137.591 123.666C137.991 123.602 138.381 123.548 138.761 123.504C139.145 123.456 139.481 123.41 139.769 123.366L139.457 123.558C139.469 122.918 139.345 122.444 139.085 122.136C138.825 121.828 138.373 121.674 137.729 121.674C137.285 121.674 136.909 121.774 136.601 121.974C136.297 122.174 136.083 122.49 135.959 122.922L135.101 122.67C135.249 122.09 135.547 121.64 135.995 121.32C136.443 121 137.025 120.84 137.741 120.84C138.333 120.84 138.835 120.952 139.247 121.176C139.663 121.396 139.957 121.716 140.129 122.136C140.209 122.324 140.261 122.534 140.285 122.766C140.309 122.998 140.321 123.234 140.321 123.474V127.5H139.535V125.874L139.763 125.97C139.543 126.526 139.201 126.95 138.737 127.242C138.273 127.534 137.717 127.68 137.069 127.68ZM137.171 126.918C137.583 126.918 137.943 126.844 138.251 126.696C138.559 126.548 138.807 126.346 138.995 126.09C139.183 125.83 139.305 125.538 139.361 125.214C139.409 125.006 139.435 124.778 139.439 124.53C139.443 124.278 139.445 124.09 139.445 123.966L139.781 124.14C139.481 124.18 139.155 124.22 138.803 124.26C138.455 124.3 138.111 124.346 137.771 124.398C137.435 124.45 137.131 124.512 136.859 124.584C136.675 124.636 136.497 124.71 136.325 124.806C136.153 124.898 136.011 125.022 135.899 125.178C135.791 125.334 135.737 125.528 135.737 125.76C135.737 125.948 135.783 126.13 135.875 126.306C135.971 126.482 136.123 126.628 136.331 126.744C136.543 126.86 136.823 126.918 137.171 126.918ZM141.883 127.5V121.02H142.675V122.58L142.519 122.376C142.591 122.184 142.685 122.008 142.801 121.848C142.917 121.684 143.043 121.55 143.179 121.446C143.347 121.298 143.543 121.186 143.767 121.11C143.991 121.03 144.217 120.984 144.445 120.972C144.673 120.956 144.881 120.972 145.069 121.02V121.848C144.833 121.788 144.575 121.774 144.295 121.806C144.015 121.838 143.757 121.95 143.521 122.142C143.305 122.31 143.143 122.512 143.035 122.748C142.927 122.98 142.855 123.228 142.819 123.492C142.783 123.752 142.765 124.01 142.765 124.266V127.5H141.883ZM151.088 127.662C150.7 127.662 150.36 127.602 150.068 127.482C149.78 127.362 149.534 127.2 149.33 126.996C149.13 126.792 148.968 126.56 148.844 126.3C148.72 126.036 148.63 125.758 148.574 125.466C148.518 125.17 148.49 124.876 148.49 124.584V121.02H149.378V124.326C149.378 124.682 149.412 125.012 149.48 125.316C149.548 125.62 149.656 125.886 149.804 126.114C149.956 126.338 150.15 126.512 150.386 126.636C150.626 126.76 150.916 126.822 151.256 126.822C151.568 126.822 151.842 126.768 152.078 126.66C152.318 126.552 152.518 126.398 152.678 126.198C152.842 125.994 152.966 125.748 153.05 125.46C153.134 125.168 153.176 124.84 153.176 124.476L153.8 124.614C153.8 125.278 153.684 125.836 153.452 126.288C153.22 126.74 152.9 127.082 152.492 127.314C152.084 127.546 151.616 127.662 151.088 127.662ZM153.266 127.5V125.904H153.176V121.02H154.058V127.5H153.266ZM160.415 127.5V124.194C160.415 123.834 160.381 123.504 160.313 123.204C160.245 122.9 160.135 122.636 159.983 122.412C159.835 122.184 159.641 122.008 159.401 121.884C159.165 121.76 158.877 121.698 158.537 121.698C158.225 121.698 157.949 121.752 157.709 121.86C157.473 121.968 157.273 122.124 157.109 122.328C156.949 122.528 156.827 122.772 156.743 123.06C156.659 123.348 156.617 123.676 156.617 124.044L155.993 123.906C155.993 123.242 156.109 122.684 156.341 122.232C156.573 121.78 156.893 121.438 157.301 121.206C157.709 120.974 158.177 120.858 158.705 120.858C159.093 120.858 159.431 120.918 159.719 121.038C160.011 121.158 160.257 121.32 160.457 121.524C160.661 121.728 160.825 121.962 160.949 122.226C161.073 122.486 161.163 122.764 161.219 123.06C161.275 123.352 161.303 123.644 161.303 123.936V127.5H160.415ZM155.729 127.5V121.02H156.527V122.616H156.617V127.5H155.729ZM168.172 127.68C167.576 127.68 167.072 127.53 166.66 127.23C166.248 126.926 165.936 126.516 165.724 126C165.512 125.48 165.406 124.898 165.406 124.254C165.406 123.598 165.512 123.014 165.724 122.502C165.94 121.986 166.256 121.58 166.672 121.284C167.088 120.988 167.6 120.84 168.208 120.84C168.8 120.84 169.308 120.99 169.732 121.29C170.156 121.59 170.48 121.998 170.704 122.514C170.932 123.03 171.046 123.61 171.046 124.254C171.046 124.902 170.932 125.484 170.704 126C170.476 126.516 170.148 126.926 169.72 127.23C169.292 127.53 168.776 127.68 168.172 127.68ZM165.256 130.38V121.02H166.048V125.898H166.144V130.38H165.256ZM168.082 126.858C168.534 126.858 168.91 126.744 169.21 126.516C169.51 126.288 169.734 125.978 169.882 125.586C170.034 125.19 170.11 124.746 170.11 124.254C170.11 123.766 170.036 123.326 169.888 122.934C169.74 122.542 169.514 122.232 169.21 122.004C168.91 121.776 168.528 121.662 168.064 121.662C167.612 121.662 167.236 121.772 166.936 121.992C166.64 122.212 166.418 122.518 166.27 122.91C166.122 123.298 166.048 123.746 166.048 124.254C166.048 124.754 166.122 125.202 166.27 125.598C166.418 125.99 166.642 126.298 166.942 126.522C167.242 126.746 167.622 126.858 168.082 126.858ZM174.217 127.68C173.729 127.68 173.319 127.592 172.987 127.416C172.659 127.24 172.413 127.006 172.249 126.714C172.085 126.422 172.003 126.104 172.003 125.76C172.003 125.408 172.073 125.108 172.213 124.86C172.357 124.608 172.551 124.402 172.795 124.242C173.043 124.082 173.329 123.96 173.653 123.876C173.981 123.796 174.343 123.726 174.739 123.666C175.139 123.602 175.529 123.548 175.909 123.504C176.293 123.456 176.629 123.41 176.917 123.366L176.605 123.558C176.617 122.918 176.493 122.444 176.233 122.136C175.973 121.828 175.521 121.674 174.877 121.674C174.433 121.674 174.057 121.774 173.749 121.974C173.445 122.174 173.231 122.49 173.107 122.922L172.249 122.67C172.397 122.09 172.695 121.64 173.143 121.32C173.591 121 174.173 120.84 174.889 120.84C175.481 120.84 175.983 120.952 176.395 121.176C176.811 121.396 177.105 121.716 177.277 122.136C177.357 122.324 177.409 122.534 177.433 122.766C177.457 122.998 177.469 123.234 177.469 123.474V127.5H176.683V125.874L176.911 125.97C176.691 126.526 176.349 126.95 175.885 127.242C175.421 127.534 174.865 127.68 174.217 127.68ZM174.319 126.918C174.731 126.918 175.091 126.844 175.399 126.696C175.707 126.548 175.955 126.346 176.143 126.09C176.331 125.83 176.453 125.538 176.509 125.214C176.557 125.006 176.583 124.778 176.587 124.53C176.591 124.278 176.593 124.09 176.593 123.966L176.929 124.14C176.629 124.18 176.303 124.22 175.951 124.26C175.603 124.3 175.259 124.346 174.919 124.398C174.583 124.45 174.279 124.512 174.007 124.584C173.823 124.636 173.645 124.71 173.473 124.806C173.301 124.898 173.159 125.022 173.047 125.178C172.939 125.334 172.885 125.528 172.885 125.76C172.885 125.948 172.931 126.13 173.023 126.306C173.119 126.482 173.271 126.628 173.479 126.744C173.691 126.86 173.971 126.918 174.319 126.918ZM181.605 130.56C181.273 130.56 180.945 130.51 180.621 130.41C180.301 130.314 180.005 130.16 179.733 129.948C179.461 129.74 179.233 129.468 179.049 129.132L179.847 128.688C180.027 129.048 180.279 129.306 180.603 129.462C180.931 129.622 181.265 129.702 181.605 129.702C182.073 129.702 182.451 129.614 182.739 129.438C183.031 129.266 183.243 129.01 183.375 128.67C183.507 128.33 183.571 127.906 183.567 127.398V125.67H183.669V121.02H184.455V127.41C184.455 127.594 184.449 127.77 184.437 127.938C184.429 128.11 184.411 128.278 184.383 128.442C184.307 128.926 184.149 129.324 183.909 129.636C183.673 129.948 183.361 130.18 182.973 130.332C182.589 130.484 182.133 130.56 181.605 130.56ZM181.545 127.68C180.941 127.68 180.425 127.53 179.997 127.23C179.569 126.926 179.241 126.516 179.013 126C178.785 125.484 178.671 124.902 178.671 124.254C178.671 123.61 178.783 123.03 179.007 122.514C179.235 121.998 179.561 121.59 179.985 121.29C180.409 120.99 180.917 120.84 181.509 120.84C182.117 120.84 182.629 120.988 183.045 121.284C183.461 121.58 183.775 121.986 183.987 122.502C184.203 123.014 184.311 123.598 184.311 124.254C184.311 124.898 184.205 125.48 183.993 126C183.781 126.516 183.469 126.926 183.057 127.23C182.645 127.53 182.141 127.68 181.545 127.68ZM181.635 126.858C182.095 126.858 182.475 126.746 182.775 126.522C183.075 126.298 183.299 125.99 183.447 125.598C183.595 125.202 183.669 124.754 183.669 124.254C183.669 123.746 183.595 123.298 183.447 122.91C183.299 122.518 183.075 122.212 182.775 121.992C182.479 121.772 182.105 121.662 181.653 121.662C181.189 121.662 180.805 121.776 180.501 122.004C180.197 122.232 179.971 122.542 179.823 122.934C179.679 123.326 179.607 123.766 179.607 124.254C179.607 124.746 179.681 125.19 179.829 125.586C179.981 125.978 180.207 126.288 180.507 126.516C180.807 126.744 181.183 126.858 181.635 126.858ZM188.839 127.68C188.195 127.68 187.645 127.534 187.189 127.242C186.733 126.95 186.383 126.546 186.139 126.03C185.895 125.514 185.773 124.922 185.773 124.254C185.773 123.574 185.897 122.978 186.145 122.466C186.393 121.954 186.745 121.556 187.201 121.272C187.661 120.984 188.207 120.84 188.839 120.84C189.487 120.84 190.039 120.986 190.495 121.278C190.955 121.566 191.305 121.968 191.545 122.484C191.789 122.996 191.911 123.586 191.911 124.254C191.911 124.934 191.789 125.532 191.545 126.048C191.301 126.56 190.949 126.96 190.489 127.248C190.029 127.536 189.479 127.68 188.839 127.68ZM188.839 126.834C189.559 126.834 190.095 126.596 190.447 126.12C190.799 125.64 190.975 125.018 190.975 124.254C190.975 123.47 190.797 122.846 190.441 122.382C190.089 121.918 189.555 121.686 188.839 121.686C188.355 121.686 187.955 121.796 187.639 122.016C187.327 122.232 187.093 122.534 186.937 122.922C186.785 123.306 186.709 123.75 186.709 124.254C186.709 125.034 186.889 125.66 187.249 126.132C187.609 126.6 188.139 126.834 188.839 126.834Z" fill="white"/>
<path d="M16.298 37.2876C16.6915 36.9 17.3246 36.9048 17.7122 37.2982C18.0998 37.6917 18.095 38.3248 17.7016 38.7124L16.298 37.2876ZM42.7063 123.293C43.0968 123.683 43.0968 124.317 42.7063 124.707L36.3423 131.071C35.9518 131.462 35.3186 131.462 34.9281 131.071C34.5376 130.681 34.5376 130.047 34.9281 129.657L40.585 124L34.9281 118.343C34.5376 117.953 34.5376 117.319 34.9281 116.929C35.3186 116.538 35.9518 116.538 36.3423 116.929L42.7063 123.293ZM17.7016 38.7124C1.26571 54.903 -0.868154 75.9784 5.24488 93.0377C11.3778 110.152 25.706 123 41.9992 123L41.9992 125C24.603 125 9.68152 111.348 3.36211 93.7123C-2.97721 76.0216 -0.766085 54.097 16.298 37.2876L17.7016 38.7124Z" fill="#ECE7F5"/>
<path d="M31.856 17.24C30.7093 17.24 29.736 16.9867 28.936 16.48C28.136 15.9733 27.5253 15.2693 27.104 14.368C26.688 13.4667 26.48 12.424 26.48 11.24C26.48 10.056 26.688 9.01333 27.104 8.112C27.5253 7.21067 28.136 6.50667 28.936 6C29.736 5.49333 30.7093 5.24 31.856 5.24C33.1893 5.24 34.2853 5.57867 35.144 6.256C36.008 6.93333 36.6027 7.84533 36.928 8.992L35.48 9.376C35.2453 8.51733 34.8267 7.84 34.224 7.344C33.6213 6.848 32.832 6.6 31.856 6.6C30.9973 6.6 30.2827 6.79467 29.712 7.184C29.1413 7.57333 28.712 8.11733 28.424 8.816C28.136 9.50933 27.9893 10.3173 27.984 11.24C27.9787 12.1573 28.12 12.9653 28.408 13.664C28.696 14.3573 29.128 14.9013 29.704 15.296C30.28 15.6853 30.9973 15.88 31.856 15.88C32.832 15.88 33.6213 15.632 34.224 15.136C34.8267 14.6347 35.2453 13.9573 35.48 13.104L36.928 13.488C36.6027 14.6293 36.008 15.5413 35.144 16.224C34.2853 16.9013 33.1893 17.24 31.856 17.24ZM42.3625 17.24C41.5038 17.24 40.7625 17.0453 40.1385 16.656C39.5198 16.2667 39.0425 15.728 38.7065 15.04C38.3705 14.352 38.2025 13.5627 38.2025 12.672C38.2025 11.7653 38.3732 10.9707 38.7145 10.288C39.0558 9.60533 39.5385 9.07467 40.1625 8.696C40.7865 8.312 41.5198 8.12 42.3625 8.12C43.2265 8.12 43.9705 8.31467 44.5945 8.704C45.2185 9.088 45.6958 9.624 46.0265 10.312C46.3625 10.9947 46.5305 11.7813 46.5305 12.672C46.5305 13.5733 46.3625 14.368 46.0265 15.056C45.6905 15.7387 45.2105 16.2747 44.5865 16.664C43.9625 17.048 43.2212 17.24 42.3625 17.24ZM42.3625 15.888C43.2585 15.888 43.9252 15.5893 44.3625 14.992C44.7998 14.3947 45.0185 13.6213 45.0185 12.672C45.0185 11.696 44.7972 10.92 44.3545 10.344C43.9118 9.76267 43.2478 9.472 42.3625 9.472C41.7598 9.472 41.2638 9.608 40.8745 9.88C40.4852 10.152 40.1945 10.528 40.0025 11.008C39.8105 11.488 39.7145 12.0427 39.7145 12.672C39.7145 13.6427 39.9385 14.4213 40.3865 15.008C40.8345 15.5947 41.4932 15.888 42.3625 15.888ZM54.4439 17V12.672C54.4439 12.2613 54.4065 11.8667 54.3319 11.488C54.2625 11.1093 54.1372 10.7707 53.9559 10.472C53.7799 10.168 53.5399 9.928 53.2359 9.752C52.9372 9.576 52.5585 9.488 52.0999 9.488C51.7425 9.488 51.4172 9.54933 51.1239 9.672C50.8359 9.78933 50.5879 9.97067 50.3799 10.216C50.1719 10.4613 50.0092 10.7707 49.8919 11.144C49.7799 11.512 49.7239 11.9467 49.7239 12.448L48.7879 12.16C48.7879 11.3227 48.9372 10.6053 49.2359 10.008C49.5399 9.40533 49.9639 8.944 50.5079 8.624C51.0572 8.29867 51.7025 8.136 52.4439 8.136C53.0039 8.136 53.4812 8.224 53.8759 8.4C54.2705 8.576 54.5985 8.81067 54.8599 9.104C55.1212 9.392 55.3265 9.71733 55.4759 10.08C55.6252 10.4373 55.7292 10.8027 55.7879 11.176C55.8519 11.544 55.8839 11.8933 55.8839 12.224V17H54.4439ZM48.2839 17V8.36H49.5639V10.672H49.7239V17H48.2839ZM58.7878 17V7.888C58.7878 7.664 58.7984 7.43733 58.8198 7.208C58.8411 6.97333 58.8891 6.74667 58.9638 6.528C59.0384 6.304 59.1611 6.09867 59.3318 5.912C59.5291 5.69333 59.7451 5.53867 59.9798 5.448C60.2144 5.352 60.4518 5.29333 60.6918 5.272C60.9371 5.25067 61.1691 5.24 61.3878 5.24H62.4838V6.424H61.4678C61.0464 6.424 60.7318 6.528 60.5238 6.736C60.3158 6.93867 60.2118 7.248 60.2118 7.664V17H58.7878ZM57.3238 9.536V8.36H62.4838V9.536H57.3238ZM64.155 6.832V5.36H65.579V6.832H64.155ZM64.155 17V8.36H65.579V17H64.155ZM67.9794 17V8.36H69.2514V10.448L69.0434 10.176C69.1447 9.90933 69.2754 9.664 69.4354 9.44C69.6007 9.216 69.7847 9.032 69.9874 8.888C70.2114 8.70667 70.4647 8.568 70.7474 8.472C71.03 8.376 71.318 8.32 71.6114 8.304C71.9047 8.28267 72.1794 8.30133 72.4354 8.36V9.696C72.1367 9.616 71.8087 9.59467 71.4514 9.632C71.094 9.66933 70.7634 9.8 70.4594 10.024C70.182 10.2213 69.966 10.4613 69.8114 10.744C69.662 11.0267 69.558 11.3333 69.4994 11.664C69.4407 11.9893 69.4114 12.3227 69.4114 12.664V17H67.9794ZM84.2761 17L84.2841 11.472C84.2841 10.8267 84.1108 10.3227 83.7641 9.96C83.4228 9.592 82.9775 9.408 82.4281 9.408C82.1081 9.408 81.8041 9.48267 81.5161 9.632C81.2281 9.776 80.9935 10.0053 80.8121 10.32C80.6308 10.6293 80.5401 11.0267 80.5401 11.512L79.7881 11.208C79.7775 10.5947 79.9028 10.0587 80.1641 9.6C80.4308 9.136 80.7935 8.776 81.2521 8.52C81.7108 8.264 82.2281 8.136 82.8041 8.136C83.7055 8.136 84.4148 8.41067 84.9321 8.96C85.4495 9.504 85.7081 10.2373 85.7081 11.16L85.7001 17H84.2761ZM73.9401 17V8.36H75.2121V10.672H75.3721V17H73.9401ZM79.1161 17L79.1241 11.528C79.1241 10.8667 78.9535 10.3493 78.6121 9.976C78.2708 9.59733 77.8175 9.408 77.2521 9.408C76.6921 9.408 76.2388 9.6 75.8921 9.984C75.5455 10.368 75.3721 10.8773 75.3721 11.512L74.6201 11.064C74.6201 10.504 74.7535 10.0027 75.0201 9.56C75.2868 9.11733 75.6495 8.77067 76.1081 8.52C76.5668 8.264 77.0868 8.136 77.6681 8.136C78.2495 8.136 78.7561 8.25867 79.1881 8.504C79.6201 8.74933 79.9535 9.10133 80.1881 9.56C80.4228 10.0133 80.5401 10.5547 80.5401 11.184L80.5321 17H79.1161ZM90.2479 17.24C89.6025 17.24 89.0612 17.1227 88.6239 16.888C88.1919 16.648 87.8639 16.3333 87.6399 15.944C87.4212 15.5547 87.3119 15.128 87.3119 14.664C87.3119 14.2107 87.3972 13.8187 87.5679 13.488C87.7439 13.152 87.9892 12.8747 88.3039 12.656C88.6185 12.432 88.9945 12.256 89.4319 12.128C89.8425 12.016 90.3012 11.92 90.8079 11.84C91.3199 11.7547 91.8372 11.6773 92.3599 11.608C92.8825 11.5387 93.3705 11.472 93.8239 11.408L93.3119 11.704C93.3279 10.936 93.1732 10.368 92.8479 10C92.5279 9.632 91.9732 9.448 91.1839 9.448C90.6612 9.448 90.2025 9.568 89.8079 9.808C89.4185 10.0427 89.1439 10.4267 88.9839 10.96L87.6319 10.552C87.8399 9.79467 88.2425 9.2 88.8399 8.768C89.4372 8.336 90.2239 8.12 91.1999 8.12C91.9839 8.12 92.6559 8.26133 93.2159 8.544C93.7812 8.82133 94.1865 9.24267 94.4319 9.808C94.5545 10.0747 94.6319 10.3653 94.6639 10.68C94.6959 10.9893 94.7119 11.3147 94.7119 11.656V17H93.4479V14.928L93.7439 15.12C93.4185 15.8187 92.9625 16.3467 92.3759 16.704C91.7945 17.0613 91.0852 17.24 90.2479 17.24ZM90.4639 16.048C90.9759 16.048 91.4185 15.9573 91.7919 15.776C92.1705 15.5893 92.4745 15.3467 92.7039 15.048C92.9332 14.744 93.0825 14.4133 93.1519 14.056C93.2319 13.7893 93.2745 13.4933 93.2799 13.168C93.2905 12.8373 93.2959 12.584 93.2959 12.408L93.7919 12.624C93.3279 12.688 92.8719 12.7493 92.4239 12.808C91.9759 12.8667 91.5519 12.9307 91.1519 13C90.7519 13.064 90.3919 13.1413 90.0719 13.232C89.8372 13.3067 89.6159 13.4027 89.4079 13.52C89.2052 13.6373 89.0399 13.7893 88.9119 13.976C88.7892 14.1573 88.7279 14.384 88.7279 14.656C88.7279 14.8907 88.7865 15.1147 88.9039 15.328C89.0265 15.5413 89.2132 15.7147 89.4639 15.848C89.7199 15.9813 90.0532 16.048 90.4639 16.048ZM100.155 17V5.24H101.579V17H100.155ZM107.659 17.24C106.801 17.24 106.059 17.0453 105.435 16.656C104.817 16.2667 104.339 15.728 104.003 15.04C103.667 14.352 103.499 13.5627 103.499 12.672C103.499 11.7653 103.67 10.9707 104.011 10.288C104.353 9.60533 104.835 9.07467 105.459 8.696C106.083 8.312 106.817 8.12 107.659 8.12C108.523 8.12 109.267 8.31467 109.891 8.704C110.515 9.088 110.993 9.624 111.323 10.312C111.659 10.9947 111.827 11.7813 111.827 12.672C111.827 13.5733 111.659 14.368 111.323 15.056C110.987 15.7387 110.507 16.2747 109.883 16.664C109.259 17.048 108.518 17.24 107.659 17.24ZM107.659 15.888C108.555 15.888 109.222 15.5893 109.659 14.992C110.097 14.3947 110.315 13.6213 110.315 12.672C110.315 11.696 110.094 10.92 109.651 10.344C109.209 9.76267 108.545 9.472 107.659 9.472C107.057 9.472 106.561 9.608 106.171 9.88C105.782 10.152 105.491 10.528 105.299 11.008C105.107 11.488 105.011 12.0427 105.011 12.672C105.011 13.6427 105.235 14.4213 105.683 15.008C106.131 15.5947 106.79 15.888 107.659 15.888ZM116.728 17.232C115.698 17.232 114.853 17.008 114.192 16.56C113.536 16.1067 113.133 15.4747 112.984 14.664L114.44 14.432C114.557 14.9013 114.826 15.2747 115.248 15.552C115.669 15.824 116.192 15.96 116.816 15.96C117.408 15.96 117.872 15.8373 118.208 15.592C118.544 15.3467 118.712 15.0133 118.712 14.592C118.712 14.3467 118.656 14.1493 118.544 14C118.432 13.8453 118.2 13.7013 117.848 13.568C117.501 13.4347 116.976 13.2747 116.272 13.088C115.509 12.8853 114.909 12.6747 114.472 12.456C114.034 12.2373 113.722 11.984 113.536 11.696C113.349 11.408 113.256 11.0587 113.256 10.648C113.256 10.1413 113.394 9.69867 113.672 9.32C113.949 8.936 114.336 8.64 114.832 8.432C115.333 8.224 115.914 8.12 116.576 8.12C117.232 8.12 117.818 8.224 118.336 8.432C118.853 8.64 119.269 8.936 119.584 9.32C119.904 9.69867 120.093 10.1413 120.152 10.648L118.696 10.912C118.626 10.448 118.402 10.0827 118.024 9.816C117.65 9.54933 117.168 9.408 116.576 9.392C116.016 9.37067 115.56 9.46933 115.208 9.688C114.861 9.90667 114.688 10.2027 114.688 10.576C114.688 10.784 114.752 10.9627 114.88 11.112C115.013 11.2613 115.256 11.4027 115.608 11.536C115.965 11.6693 116.482 11.8213 117.16 11.992C117.922 12.184 118.522 12.3947 118.96 12.624C119.402 12.848 119.717 13.1147 119.904 13.424C120.09 13.728 120.184 14.104 120.184 14.552C120.184 15.384 119.877 16.04 119.264 16.52C118.65 16.9947 117.805 17.232 116.728 17.232ZM129.119 17.24C128.309 17.24 127.626 17.04 127.071 16.64C126.517 16.2347 126.095 15.688 125.807 15C125.525 14.3067 125.383 13.5307 125.383 12.672C125.383 11.8027 125.525 11.024 125.807 10.336C126.095 9.648 126.517 9.10667 127.071 8.712C127.631 8.31733 128.317 8.12 129.127 8.12C129.927 8.12 130.615 8.32 131.191 8.72C131.773 9.11467 132.218 9.656 132.527 10.344C132.837 11.032 132.991 11.808 132.991 12.672C132.991 13.536 132.837 14.312 132.527 15C132.218 15.688 131.773 16.2347 131.191 16.64C130.615 17.04 129.925 17.24 129.119 17.24ZM125.143 20.84V8.36H126.415V14.72H126.575V20.84H125.143ZM128.943 15.936C129.514 15.936 129.986 15.792 130.359 15.504C130.733 15.216 131.013 14.8267 131.199 14.336C131.386 13.84 131.479 13.2853 131.479 12.672C131.479 12.064 131.386 11.5147 131.199 11.024C131.018 10.5333 130.735 10.144 130.351 9.856C129.973 9.568 129.49 9.424 128.903 9.424C128.343 9.424 127.879 9.56267 127.511 9.84C127.143 10.112 126.869 10.4933 126.687 10.984C126.506 11.4693 126.415 12.032 126.415 12.672C126.415 13.3013 126.503 13.864 126.679 14.36C126.861 14.8507 127.138 15.2373 127.511 15.52C127.885 15.7973 128.362 15.936 128.943 15.936ZM137.201 17.24C136.556 17.24 136.014 17.1227 135.577 16.888C135.145 16.648 134.817 16.3333 134.593 15.944C134.374 15.5547 134.265 15.128 134.265 14.664C134.265 14.2107 134.35 13.8187 134.521 13.488C134.697 13.152 134.942 12.8747 135.257 12.656C135.572 12.432 135.948 12.256 136.385 12.128C136.796 12.016 137.254 11.92 137.761 11.84C138.273 11.7547 138.79 11.6773 139.313 11.608C139.836 11.5387 140.324 11.472 140.777 11.408L140.265 11.704C140.281 10.936 140.126 10.368 139.801 10C139.481 9.632 138.926 9.448 138.137 9.448C137.614 9.448 137.156 9.568 136.761 9.808C136.372 10.0427 136.097 10.4267 135.937 10.96L134.585 10.552C134.793 9.79467 135.196 9.2 135.793 8.768C136.39 8.336 137.177 8.12 138.153 8.12C138.937 8.12 139.609 8.26133 140.169 8.544C140.734 8.82133 141.14 9.24267 141.385 9.808C141.508 10.0747 141.585 10.3653 141.617 10.68C141.649 10.9893 141.665 11.3147 141.665 11.656V17H140.401V14.928L140.697 15.12C140.372 15.8187 139.916 16.3467 139.329 16.704C138.748 17.0613 138.038 17.24 137.201 17.24ZM137.417 16.048C137.929 16.048 138.372 15.9573 138.745 15.776C139.124 15.5893 139.428 15.3467 139.657 15.048C139.886 14.744 140.036 14.4133 140.105 14.056C140.185 13.7893 140.228 13.4933 140.233 13.168C140.244 12.8373 140.249 12.584 140.249 12.408L140.745 12.624C140.281 12.688 139.825 12.7493 139.377 12.808C138.929 12.8667 138.505 12.9307 138.105 13C137.705 13.064 137.345 13.1413 137.025 13.232C136.79 13.3067 136.569 13.4027 136.361 13.52C136.158 13.6373 135.993 13.7893 135.865 13.976C135.742 14.1573 135.681 14.384 135.681 14.656C135.681 14.8907 135.74 15.1147 135.857 15.328C135.98 15.5413 136.166 15.7147 136.417 15.848C136.673 15.9813 137.006 16.048 137.417 16.048ZM147.241 21.08C146.788 21.08 146.345 21.0107 145.913 20.872C145.481 20.7333 145.084 20.5227 144.721 20.24C144.364 19.9627 144.065 19.6107 143.825 19.184L145.129 18.496C145.342 18.9173 145.644 19.224 146.033 19.416C146.428 19.608 146.833 19.704 147.249 19.704C147.798 19.704 148.254 19.6027 148.617 19.4C148.98 19.2027 149.246 18.9067 149.417 18.512C149.593 18.1173 149.678 17.6267 149.673 17.04V14.68H149.841V8.36H151.105V17.056C151.105 17.2907 151.097 17.5173 151.081 17.736C151.07 17.9547 151.044 18.1707 151.001 18.384C150.889 18.9973 150.668 19.5013 150.337 19.896C150.006 20.296 149.58 20.592 149.057 20.784C148.534 20.9813 147.929 21.08 147.241 21.08ZM147.137 17.24C146.332 17.24 145.641 17.04 145.065 16.64C144.489 16.2347 144.044 15.688 143.729 15C143.42 14.312 143.265 13.536 143.265 12.672C143.265 11.808 143.42 11.032 143.729 10.344C144.044 9.656 144.489 9.11467 145.065 8.72C145.641 8.32 146.329 8.12 147.129 8.12C147.945 8.12 148.63 8.31733 149.185 8.712C149.74 9.10667 150.158 9.648 150.441 10.336C150.729 11.024 150.873 11.8027 150.873 12.672C150.873 13.5307 150.729 14.3067 150.441 15C150.158 15.688 149.74 16.2347 149.185 16.64C148.63 17.04 147.948 17.24 147.137 17.24ZM147.313 15.936C147.894 15.936 148.372 15.7973 148.745 15.52C149.118 15.2373 149.393 14.8507 149.569 14.36C149.75 13.864 149.841 13.3013 149.841 12.672C149.841 12.032 149.75 11.4693 149.569 10.984C149.393 10.4933 149.121 10.112 148.753 9.84C148.385 9.56267 147.918 9.424 147.353 9.424C146.766 9.424 146.281 9.568 145.897 9.856C145.518 10.144 145.236 10.5333 145.049 11.024C144.868 11.5147 144.777 12.064 144.777 12.672C144.777 13.2853 144.87 13.84 145.057 14.336C145.244 14.8267 145.524 15.216 145.897 15.504C146.276 15.792 146.748 15.936 147.313 15.936ZM157.019 17.24C156.16 17.24 155.419 17.0453 154.795 16.656C154.176 16.2667 153.699 15.728 153.363 15.04C153.027 14.352 152.859 13.5627 152.859 12.672C152.859 11.7653 153.029 10.9707 153.371 10.288C153.712 9.60533 154.195 9.07467 154.819 8.696C155.443 8.312 156.176 8.12 157.019 8.12C157.883 8.12 158.627 8.31467 159.251 8.704C159.875 9.088 160.352 9.624 160.683 10.312C161.019 10.9947 161.187 11.7813 161.187 12.672C161.187 13.5733 161.019 14.368 160.683 15.056C160.347 15.7387 159.867 16.2747 159.243 16.664C158.619 17.048 157.877 17.24 157.019 17.24ZM157.019 15.888C157.915 15.888 158.581 15.5893 159.019 14.992C159.456 14.3947 159.675 13.6213 159.675 12.672C159.675 11.696 159.453 10.92 159.011 10.344C158.568 9.76267 157.904 9.472 157.019 9.472C156.416 9.472 155.92 9.608 155.531 9.88C155.141 10.152 154.851 10.528 154.659 11.008C154.467 11.488 154.371 12.0427 154.371 12.672C154.371 13.6427 154.595 14.4213 155.043 15.008C155.491 15.5947 156.149 15.888 157.019 15.888ZM166.087 17.232C165.058 17.232 164.212 17.008 163.551 16.56C162.895 16.1067 162.492 15.4747 162.343 14.664L163.799 14.432C163.916 14.9013 164.186 15.2747 164.607 15.552C165.028 15.824 165.551 15.96 166.175 15.96C166.767 15.96 167.231 15.8373 167.567 15.592C167.903 15.3467 168.071 15.0133 168.071 14.592C168.071 14.3467 168.015 14.1493 167.903 14C167.791 13.8453 167.559 13.7013 167.207 13.568C166.86 13.4347 166.335 13.2747 165.631 13.088C164.868 12.8853 164.268 12.6747 163.831 12.456C163.394 12.2373 163.082 11.984 162.895 11.696C162.708 11.408 162.615 11.0587 162.615 10.648C162.615 10.1413 162.754 9.69867 163.031 9.32C163.308 8.936 163.695 8.64 164.191 8.432C164.692 8.224 165.274 8.12 165.935 8.12C166.591 8.12 167.178 8.224 167.695 8.432C168.212 8.64 168.628 8.936 168.943 9.32C169.263 9.69867 169.452 10.1413 169.511 10.648L168.055 10.912C167.986 10.448 167.762 10.0827 167.383 9.816C167.01 9.54933 166.527 9.408 165.935 9.392C165.375 9.37067 164.919 9.46933 164.567 9.688C164.22 9.90667 164.047 10.2027 164.047 10.576C164.047 10.784 164.111 10.9627 164.239 11.112C164.372 11.2613 164.615 11.4027 164.967 11.536C165.324 11.6693 165.842 11.8213 166.519 11.992C167.282 12.184 167.882 12.3947 168.319 12.624C168.762 12.848 169.076 13.1147 169.263 13.424C169.45 13.728 169.543 14.104 169.543 14.552C169.543 15.384 169.236 16.04 168.623 16.52C168.01 16.9947 167.164 17.232 166.087 17.232ZM177.903 17.24C177.097 17.24 176.407 17.04 175.831 16.64C175.255 16.2347 174.809 15.688 174.495 15C174.185 14.312 174.031 13.536 174.031 12.672C174.031 11.808 174.185 11.032 174.495 10.344C174.809 9.656 175.255 9.11467 175.831 8.72C176.407 8.32 177.095 8.12 177.895 8.12C178.711 8.12 179.396 8.31733 179.951 8.712C180.505 9.10667 180.924 9.648 181.207 10.336C181.495 11.024 181.639 11.8027 181.639 12.672C181.639 13.5307 181.495 14.3067 181.207 15C180.924 15.688 180.505 16.2347 179.951 16.64C179.396 17.04 178.713 17.24 177.903 17.24ZM178.079 15.936C178.66 15.936 179.137 15.7973 179.511 15.52C179.884 15.2373 180.159 14.8507 180.335 14.36C180.516 13.864 180.607 13.3013 180.607 12.672C180.607 12.032 180.516 11.4693 180.335 10.984C180.159 10.4933 179.887 10.112 179.519 9.84C179.151 9.56267 178.684 9.424 178.119 9.424C177.532 9.424 177.047 9.568 176.663 9.856C176.284 10.144 176.001 10.5333 175.815 11.024C175.633 11.5147 175.543 12.064 175.543 12.672C175.543 13.2853 175.636 13.84 175.823 14.336C176.009 14.8267 176.289 15.216 176.663 15.504C177.041 15.792 177.513 15.936 178.079 15.936ZM180.607 17V10.64H180.447V5.48H181.879V17H180.607ZM187.864 17.24C187.016 17.24 186.275 17.0533 185.64 16.68C185.011 16.3013 184.52 15.776 184.168 15.104C183.816 14.4267 183.64 13.6373 183.64 12.736C183.64 11.792 183.813 10.976 184.16 10.288C184.507 9.59467 184.989 9.06133 185.608 8.688C186.232 8.30933 186.963 8.12 187.8 8.12C188.669 8.12 189.408 8.32 190.016 8.72C190.629 9.12 191.088 9.69067 191.392 10.432C191.701 11.1733 191.835 12.056 191.792 13.08H190.352V12.568C190.336 11.5067 190.12 10.7147 189.704 10.192C189.288 9.664 188.669 9.4 187.848 9.4C186.968 9.4 186.299 9.68267 185.84 10.248C185.381 10.8133 185.152 11.624 185.152 12.68C185.152 13.6987 185.381 14.488 185.84 15.048C186.299 15.608 186.952 15.888 187.8 15.888C188.371 15.888 188.867 15.7573 189.288 15.496C189.709 15.2347 190.04 14.8587 190.28 14.368L191.648 14.84C191.312 15.6027 190.805 16.1947 190.128 16.616C189.456 17.032 188.701 17.24 187.864 17.24ZM184.672 13.08V11.936H191.056V13.08H184.672ZM201.6 17C201.088 17.1013 200.582 17.1413 200.08 17.12C199.584 17.104 199.142 17.0053 198.752 16.824C198.363 16.6373 198.067 16.3493 197.864 15.96C197.694 15.6187 197.6 15.2747 197.584 14.928C197.574 14.576 197.568 14.1787 197.568 13.736V5.96H198.992V13.672C198.992 14.024 198.995 14.3253 199 14.576C199.011 14.8267 199.067 15.0427 199.168 15.224C199.36 15.5653 199.664 15.7653 200.08 15.824C200.502 15.8827 201.008 15.8667 201.6 15.776V17ZM195.816 9.536V8.36H201.6V9.536H195.816ZM206.634 17.224C206.08 17.224 205.602 17.136 205.202 16.96C204.808 16.784 204.48 16.5493 204.218 16.256C203.957 15.9627 203.752 15.6373 203.602 15.28C203.453 14.9227 203.346 14.5573 203.282 14.184C203.224 13.8107 203.194 13.4613 203.194 13.136V8.36H204.634V12.688C204.634 13.0933 204.672 13.4853 204.746 13.864C204.821 14.2427 204.946 14.584 205.122 14.888C205.304 15.192 205.544 15.432 205.842 15.608C206.146 15.784 206.525 15.872 206.978 15.872C207.336 15.872 207.661 15.8107 207.954 15.688C208.248 15.5653 208.498 15.384 208.706 15.144C208.914 14.8987 209.074 14.5893 209.186 14.216C209.298 13.8427 209.354 13.408 209.354 12.912L210.29 13.2C210.29 14.032 210.138 14.7493 209.834 15.352C209.536 15.9547 209.112 16.4187 208.562 16.744C208.018 17.064 207.376 17.224 206.634 17.224ZM209.514 17V14.688H209.354V8.36H210.786V17H209.514ZM33.272 39V34.672C33.272 34.2613 33.2347 33.8667 33.16 33.488C33.0907 33.1093 32.9653 32.7707 32.784 32.472C32.608 32.168 32.368 31.928 32.064 31.752C31.7653 31.576 31.3867 31.488 30.928 31.488C30.5707 31.488 30.2453 31.5493 29.952 31.672C29.664 31.7893 29.416 31.9707 29.208 32.216C29 32.4613 28.8373 32.7707 28.72 33.144C28.608 33.512 28.552 33.9467 28.552 34.448L27.616 34.16C27.616 33.3227 27.7653 32.6053 28.064 32.008C28.368 31.4053 28.792 30.944 29.336 30.624C29.8853 30.2987 30.5307 30.136 31.272 30.136C31.832 30.136 32.3093 30.224 32.704 30.4C33.0987 30.576 33.4267 30.8107 33.688 31.104C33.9493 31.392 34.1547 31.7173 34.304 32.08C34.4533 32.4373 34.5573 32.8027 34.616 33.176C34.68 33.544 34.712 33.8933 34.712 34.224V39H33.272ZM27.112 39V30.36H28.392V32.672H28.552V39H27.112ZM40.4578 39.24C39.6098 39.24 38.8684 39.0533 38.2338 38.68C37.6044 38.3013 37.1138 37.776 36.7618 37.104C36.4098 36.4267 36.2338 35.6373 36.2338 34.736C36.2338 33.792 36.4071 32.976 36.7538 32.288C37.1004 31.5947 37.5831 31.0613 38.2018 30.688C38.8258 30.3093 39.5564 30.12 40.3938 30.12C41.2631 30.12 42.0018 30.32 42.6098 30.72C43.2231 31.12 43.6818 31.6907 43.9858 32.432C44.2951 33.1733 44.4284 34.056 44.3858 35.08H42.9458V34.568C42.9298 33.5067 42.7138 32.7147 42.2978 32.192C41.8818 31.664 41.2631 31.4 40.4418 31.4C39.5618 31.4 38.8924 31.6827 38.4338 32.248C37.9751 32.8133 37.7458 33.624 37.7458 34.68C37.7458 35.6987 37.9751 36.488 38.4338 37.048C38.8924 37.608 39.5458 37.888 40.3938 37.888C40.9644 37.888 41.4604 37.7573 41.8818 37.496C42.3031 37.2347 42.6338 36.8587 42.8738 36.368L44.2418 36.84C43.9058 37.6027 43.3991 38.1947 42.7218 38.616C42.0498 39.032 41.2951 39.24 40.4578 39.24ZM37.2658 35.08V33.936H43.6498V35.08H37.2658ZM49.6629 43.08C49.2095 43.08 48.7669 43.0107 48.3349 42.872C47.9029 42.7333 47.5055 42.5227 47.1429 42.24C46.7855 41.9627 46.4869 41.6107 46.2469 41.184L47.5509 40.496C47.7642 40.9173 48.0655 41.224 48.4549 41.416C48.8495 41.608 49.2549 41.704 49.6709 41.704C50.2202 41.704 50.6762 41.6027 51.0389 41.4C51.4015 41.2027 51.6682 40.9067 51.8389 40.512C52.0149 40.1173 52.1002 39.6267 52.0949 39.04V36.68H52.2629V30.36H53.5269V39.056C53.5269 39.2907 53.5189 39.5173 53.5029 39.736C53.4922 39.9547 53.4655 40.1707 53.4229 40.384C53.3109 40.9973 53.0895 41.5013 52.7589 41.896C52.4282 42.296 52.0015 42.592 51.4789 42.784C50.9562 42.9813 50.3509 43.08 49.6629 43.08ZM49.5589 39.24C48.7535 39.24 48.0629 39.04 47.4869 38.64C46.9109 38.2347 46.4655 37.688 46.1509 37C45.8415 36.312 45.6869 35.536 45.6869 34.672C45.6869 33.808 45.8415 33.032 46.1509 32.344C46.4655 31.656 46.9109 31.1147 47.4869 30.72C48.0629 30.32 48.7509 30.12 49.5509 30.12C50.3669 30.12 51.0522 30.3173 51.6069 30.712C52.1615 31.1067 52.5802 31.648 52.8629 32.336C53.1509 33.024 53.2949 33.8027 53.2949 34.672C53.2949 35.5307 53.1509 36.3067 52.8629 37C52.5802 37.688 52.1615 38.2347 51.6069 38.64C51.0522 39.04 50.3695 39.24 49.5589 39.24ZM49.7349 37.936C50.3162 37.936 50.7935 37.7973 51.1669 37.52C51.5402 37.2373 51.8149 36.8507 51.9909 36.36C52.1722 35.864 52.2629 35.3013 52.2629 34.672C52.2629 34.032 52.1722 33.4693 51.9909 32.984C51.8149 32.4933 51.5429 32.112 51.1749 31.84C50.8069 31.5627 50.3402 31.424 49.7749 31.424C49.1882 31.424 48.7029 31.568 48.3189 31.856C47.9402 32.144 47.6575 32.5333 47.4709 33.024C47.2895 33.5147 47.1989 34.064 47.1989 34.672C47.1989 35.2853 47.2922 35.84 47.4789 36.336C47.6655 36.8267 47.9455 37.216 48.3189 37.504C48.6975 37.792 49.1695 37.936 49.7349 37.936ZM59.4406 39.24C58.582 39.24 57.8406 39.0453 57.2166 38.656C56.598 38.2667 56.1206 37.728 55.7846 37.04C55.4486 36.352 55.2806 35.5627 55.2806 34.672C55.2806 33.7653 55.4513 32.9707 55.7926 32.288C56.134 31.6053 56.6166 31.0747 57.2406 30.696C57.8646 30.312 58.598 30.12 59.4406 30.12C60.3046 30.12 61.0486 30.3147 61.6726 30.704C62.2966 31.088 62.774 31.624 63.1046 32.312C63.4406 32.9947 63.6086 33.7813 63.6086 34.672C63.6086 35.5733 63.4406 36.368 63.1046 37.056C62.7686 37.7387 62.2886 38.2747 61.6646 38.664C61.0406 39.048 60.2993 39.24 59.4406 39.24ZM59.4406 37.888C60.3366 37.888 61.0033 37.5893 61.4406 36.992C61.878 36.3947 62.0966 35.6213 62.0966 34.672C62.0966 33.696 61.8753 32.92 61.4326 32.344C60.99 31.7627 60.326 31.472 59.4406 31.472C58.838 31.472 58.342 31.608 57.9526 31.88C57.5633 32.152 57.2726 32.528 57.0806 33.008C56.8886 33.488 56.7926 34.0427 56.7926 34.672C56.7926 35.6427 57.0166 36.4213 57.4646 37.008C57.9126 37.5947 58.5713 37.888 59.4406 37.888ZM69.01 39.24C68.1353 39.24 67.3913 39.0453 66.778 38.656C66.17 38.2613 65.706 37.72 65.386 37.032C65.066 36.344 64.9007 35.56 64.89 34.68C64.9007 33.7787 65.0687 32.9867 65.394 32.304C65.7247 31.616 66.1967 31.08 66.81 30.696C67.4233 30.312 68.162 30.12 69.026 30.12C69.938 30.12 70.722 30.344 71.378 30.792C72.0393 31.24 72.482 31.8533 72.706 32.632L71.298 33.056C71.1167 32.5547 70.8207 32.1653 70.41 31.888C70.0047 31.6107 69.538 31.472 69.01 31.472C68.418 31.472 67.93 31.6107 67.546 31.888C67.162 32.16 66.8767 32.5387 66.69 33.024C66.5033 33.504 66.4073 34.056 66.402 34.68C66.4127 35.64 66.634 36.416 67.066 37.008C67.5033 37.5947 68.1513 37.888 69.01 37.888C69.5753 37.888 70.0447 37.76 70.418 37.504C70.7913 37.2427 71.074 36.8667 71.266 36.376L72.706 36.752C72.4073 37.5573 71.9407 38.1733 71.306 38.6C70.6713 39.0267 69.906 39.24 69.01 39.24ZM74.2644 28.832V27.36H75.6884V28.832H74.2644ZM74.2644 39V30.36H75.6884V39H74.2644ZM81.7688 39.24C80.9101 39.24 80.1688 39.0453 79.5448 38.656C78.9261 38.2667 78.4488 37.728 78.1128 37.04C77.7768 36.352 77.6088 35.5627 77.6088 34.672C77.6088 33.7653 77.7794 32.9707 78.1208 32.288C78.4621 31.6053 78.9448 31.0747 79.5688 30.696C80.1928 30.312 80.9261 30.12 81.7688 30.12C82.6328 30.12 83.3768 30.3147 84.0008 30.704C84.6248 31.088 85.1021 31.624 85.4328 32.312C85.7688 32.9947 85.9368 33.7813 85.9368 34.672C85.9368 35.5733 85.7688 36.368 85.4328 37.056C85.0968 37.7387 84.6168 38.2747 83.9928 38.664C83.3688 39.048 82.6274 39.24 81.7688 39.24ZM81.7688 37.888C82.6648 37.888 83.3314 37.5893 83.7688 36.992C84.2061 36.3947 84.4248 35.6213 84.4248 34.672C84.4248 33.696 84.2034 32.92 83.7608 32.344C83.3181 31.7627 82.6541 31.472 81.7688 31.472C81.1661 31.472 80.6701 31.608 80.2808 31.88C79.8914 32.152 79.6008 32.528 79.4088 33.008C79.2168 33.488 79.1208 34.0427 79.1208 34.672C79.1208 35.6427 79.3448 36.4213 79.7928 37.008C80.2408 37.5947 80.8994 37.888 81.7688 37.888ZM94.1813 39.224C93.6266 39.224 93.1493 39.136 92.7493 38.96C92.3546 38.784 92.0266 38.5493 91.7653 38.256C91.5039 37.9627 91.2986 37.6373 91.1493 37.28C90.9999 36.9227 90.8933 36.5573 90.8293 36.184C90.7706 35.8107 90.7413 35.4613 90.7413 35.136V30.36H92.1813V34.688C92.1813 35.0933 92.2186 35.4853 92.2933 35.864C92.3679 36.2427 92.4933 36.584 92.6693 36.888C92.8506 37.192 93.0906 37.432 93.3893 37.608C93.6933 37.784 94.0719 37.872 94.5253 37.872C94.8826 37.872 95.2079 37.8107 95.5013 37.688C95.7946 37.5653 96.0453 37.384 96.2533 37.144C96.4613 36.8987 96.6213 36.5893 96.7333 36.216C96.8453 35.8427 96.9013 35.408 96.9013 34.912L97.8373 35.2C97.8373 36.032 97.6853 36.7493 97.3813 37.352C97.0826 37.9547 96.6586 38.4187 96.1093 38.744C95.5653 39.064 94.9226 39.224 94.1813 39.224ZM97.0613 39V36.688H96.9013V30.36H98.3333V39H97.0613ZM103.837 39.232C102.808 39.232 101.962 39.008 101.301 38.56C100.645 38.1067 100.242 37.4747 100.093 36.664L101.549 36.432C101.666 36.9013 101.936 37.2747 102.357 37.552C102.778 37.824 103.301 37.96 103.925 37.96C104.517 37.96 104.981 37.8373 105.317 37.592C105.653 37.3467 105.821 37.0133 105.821 36.592C105.821 36.3467 105.765 36.1493 105.653 36C105.541 35.8453 105.309 35.7013 104.957 35.568C104.61 35.4347 104.085 35.2747 103.381 35.088C102.618 34.8853 102.018 34.6747 101.581 34.456C101.144 34.2373 100.832 33.984 100.645 33.696C100.458 33.408 100.365 33.0587 100.365 32.648C100.365 32.1413 100.504 31.6987 100.781 31.32C101.058 30.936 101.445 30.64 101.941 30.432C102.442 30.224 103.024 30.12 103.685 30.12C104.341 30.12 104.928 30.224 105.445 30.432C105.962 30.64 106.378 30.936 106.693 31.32C107.013 31.6987 107.202 32.1413 107.261 32.648L105.805 32.912C105.736 32.448 105.512 32.0827 105.133 31.816C104.76 31.5493 104.277 31.408 103.685 31.392C103.125 31.3707 102.669 31.4693 102.317 31.688C101.97 31.9067 101.797 32.2027 101.797 32.576C101.797 32.784 101.861 32.9627 101.989 33.112C102.122 33.2613 102.365 33.4027 102.717 33.536C103.074 33.6693 103.592 33.8213 104.269 33.992C105.032 34.184 105.632 34.3947 106.069 34.624C106.512 34.848 106.826 35.1147 107.013 35.424C107.2 35.728 107.293 36.104 107.293 36.552C107.293 37.384 106.986 38.04 106.373 38.52C105.76 38.9947 104.914 39.232 103.837 39.232ZM111.514 39.24C110.868 39.24 110.327 39.1227 109.89 38.888C109.458 38.648 109.13 38.3333 108.906 37.944C108.687 37.5547 108.578 37.128 108.578 36.664C108.578 36.2107 108.663 35.8187 108.834 35.488C109.01 35.152 109.255 34.8747 109.57 34.656C109.884 34.432 110.26 34.256 110.698 34.128C111.108 34.016 111.567 33.92 112.074 33.84C112.586 33.7547 113.103 33.6773 113.626 33.608C114.148 33.5387 114.636 33.472 115.09 33.408L114.578 33.704C114.594 32.936 114.439 32.368 114.114 32C113.794 31.632 113.239 31.448 112.45 31.448C111.927 31.448 111.468 31.568 111.074 31.808C110.684 32.0427 110.41 32.4267 110.25 32.96L108.898 32.552C109.106 31.7947 109.508 31.2 110.106 30.768C110.703 30.336 111.49 30.12 112.466 30.12C113.25 30.12 113.922 30.2613 114.482 30.544C115.047 30.8213 115.452 31.2427 115.698 31.808C115.82 32.0747 115.898 32.3653 115.93 32.68C115.962 32.9893 115.977 33.3147 115.977 33.656V39H114.714V36.928L115.01 37.12C114.684 37.8187 114.228 38.3467 113.642 38.704C113.06 39.0613 112.351 39.24 111.514 39.24ZM111.73 38.048C112.242 38.048 112.684 37.9573 113.058 37.776C113.436 37.5893 113.74 37.3467 113.97 37.048C114.199 36.744 114.348 36.4133 114.418 36.056C114.498 35.7893 114.54 35.4933 114.546 35.168C114.556 34.8373 114.562 34.584 114.562 34.408L115.058 34.624C114.594 34.688 114.138 34.7493 113.69 34.808C113.242 34.8667 112.818 34.9307 112.418 35C112.018 35.064 111.658 35.1413 111.338 35.232C111.103 35.3067 110.882 35.4027 110.674 35.52C110.471 35.6373 110.306 35.7893 110.178 35.976C110.055 36.1573 109.993 36.384 109.993 36.656C109.993 36.8907 110.052 37.1147 110.17 37.328C110.292 37.5413 110.479 37.7147 110.73 37.848C110.986 37.9813 111.319 38.048 111.73 38.048ZM124.21 39V34.672C124.21 34.2613 124.172 33.8667 124.098 33.488C124.028 33.1093 123.903 32.7707 123.722 32.472C123.546 32.168 123.306 31.928 123.002 31.752C122.703 31.576 122.324 31.488 121.866 31.488C121.508 31.488 121.183 31.5493 120.89 31.672C120.602 31.7893 120.354 31.9707 120.146 32.216C119.938 32.4613 119.775 32.7707 119.658 33.144C119.546 33.512 119.49 33.9467 119.49 34.448L118.554 34.16C118.554 33.3227 118.703 32.6053 119.002 32.008C119.306 31.4053 119.73 30.944 120.274 30.624C120.823 30.2987 121.468 30.136 122.21 30.136C122.77 30.136 123.247 30.224 123.642 30.4C124.036 30.576 124.364 30.8107 124.626 31.104C124.887 31.392 125.092 31.7173 125.242 32.08C125.391 32.4373 125.495 32.8027 125.554 33.176C125.618 33.544 125.65 33.8933 125.65 34.224V39H124.21ZM118.05 39V30.36H119.33V32.672H119.49V39H118.05ZM131.043 39.24C130.238 39.24 129.547 39.04 128.971 38.64C128.395 38.2347 127.95 37.688 127.635 37C127.326 36.312 127.171 35.536 127.171 34.672C127.171 33.808 127.326 33.032 127.635 32.344C127.95 31.656 128.395 31.1147 128.971 30.72C129.547 30.32 130.235 30.12 131.035 30.12C131.851 30.12 132.537 30.3173 133.091 30.712C133.646 31.1067 134.065 31.648 134.347 32.336C134.635 33.024 134.779 33.8027 134.779 34.672C134.779 35.5307 134.635 36.3067 134.347 37C134.065 37.688 133.646 38.2347 133.091 38.64C132.537 39.04 131.854 39.24 131.043 39.24ZM131.219 37.936C131.801 37.936 132.278 37.7973 132.651 37.52C133.025 37.2373 133.299 36.8507 133.475 36.36C133.657 35.864 133.747 35.3013 133.747 34.672C133.747 34.032 133.657 33.4693 133.475 32.984C133.299 32.4933 133.027 32.112 132.659 31.84C132.291 31.5627 131.825 31.424 131.259 31.424C130.673 31.424 130.187 31.568 129.803 31.856C129.425 32.144 129.142 32.5333 128.955 33.024C128.774 33.5147 128.683 34.064 128.683 34.672C128.683 35.2853 128.777 35.84 128.963 36.336C129.15 36.8267 129.43 37.216 129.803 37.504C130.182 37.792 130.654 37.936 131.219 37.936ZM133.747 39V32.64H133.587V27.48H135.019V39H133.747ZM140.941 39.24C140.082 39.24 139.341 39.0453 138.717 38.656C138.098 38.2667 137.621 37.728 137.285 37.04C136.949 36.352 136.781 35.5627 136.781 34.672C136.781 33.7653 136.951 32.9707 137.293 32.288C137.634 31.6053 138.117 31.0747 138.741 30.696C139.365 30.312 140.098 30.12 140.941 30.12C141.805 30.12 142.549 30.3147 143.173 30.704C143.797 31.088 144.274 31.624 144.605 32.312C144.941 32.9947 145.109 33.7813 145.109 34.672C145.109 35.5733 144.941 36.368 144.605 37.056C144.269 37.7387 143.789 38.2747 143.165 38.664C142.541 39.048 141.799 39.24 140.941 39.24ZM140.941 37.888C141.837 37.888 142.503 37.5893 142.941 36.992C143.378 36.3947 143.597 35.6213 143.597 34.672C143.597 33.696 143.375 32.92 142.933 32.344C142.49 31.7627 141.826 31.472 140.941 31.472C140.338 31.472 139.842 31.608 139.453 31.88C139.063 32.152 138.773 32.528 138.581 33.008C138.389 33.488 138.293 34.0427 138.293 34.672C138.293 35.6427 138.517 36.4213 138.965 37.008C139.413 37.5947 140.071 37.888 140.941 37.888ZM153.817 39.24C152.969 39.24 152.228 39.0533 151.593 38.68C150.964 38.3013 150.473 37.776 150.121 37.104C149.769 36.4267 149.593 35.6373 149.593 34.736C149.593 33.792 149.766 32.976 150.113 32.288C150.46 31.5947 150.942 31.0613 151.561 30.688C152.185 30.3093 152.916 30.12 153.753 30.12C154.622 30.12 155.361 30.32 155.969 30.72C156.582 31.12 157.041 31.6907 157.345 32.432C157.654 33.1733 157.788 34.056 157.745 35.08H156.305V34.568C156.289 33.5067 156.073 32.7147 155.657 32.192C155.241 31.664 154.622 31.4 153.801 31.4C152.921 31.4 152.252 31.6827 151.793 32.248C151.334 32.8133 151.105 33.624 151.105 34.68C151.105 35.6987 151.334 36.488 151.793 37.048C152.252 37.608 152.905 37.888 153.753 37.888C154.324 37.888 154.82 37.7573 155.241 37.496C155.662 37.2347 155.993 36.8587 156.233 36.368L157.601 36.84C157.265 37.6027 156.758 38.1947 156.081 38.616C155.409 39.032 154.654 39.24 153.817 39.24ZM150.625 35.08V33.936H157.009V35.08H150.625ZM162.79 39.232C161.761 39.232 160.916 39.008 160.254 38.56C159.598 38.1067 159.196 37.4747 159.046 36.664L160.502 36.432C160.62 36.9013 160.889 37.2747 161.31 37.552C161.732 37.824 162.254 37.96 162.878 37.96C163.47 37.96 163.934 37.8373 164.27 37.592C164.606 37.3467 164.774 37.0133 164.774 36.592C164.774 36.3467 164.718 36.1493 164.606 36C164.494 35.8453 164.262 35.7013 163.91 35.568C163.564 35.4347 163.038 35.2747 162.334 35.088C161.572 34.8853 160.972 34.6747 160.534 34.456C160.097 34.2373 159.785 33.984 159.598 33.696C159.412 33.408 159.318 33.0587 159.318 32.648C159.318 32.1413 159.457 31.6987 159.734 31.32C160.012 30.936 160.398 30.64 160.894 30.432C161.396 30.224 161.977 30.12 162.638 30.12C163.294 30.12 163.881 30.224 164.398 30.432C164.916 30.64 165.332 30.936 165.646 31.32C165.966 31.6987 166.156 32.1413 166.214 32.648L164.758 32.912C164.689 32.448 164.465 32.0827 164.086 31.816C163.713 31.5493 163.23 31.408 162.638 31.392C162.078 31.3707 161.622 31.4693 161.27 31.688C160.924 31.9067 160.75 32.2027 160.75 32.576C160.75 32.784 160.814 32.9627 160.942 33.112C161.076 33.2613 161.318 33.4027 161.67 33.536C162.028 33.6693 162.545 33.8213 163.222 33.992C163.985 34.184 164.585 34.3947 165.022 34.624C165.465 34.848 165.78 35.1147 165.966 35.424C166.153 35.728 166.246 36.104 166.246 36.552C166.246 37.384 165.94 38.04 165.326 38.52C164.713 38.9947 163.868 39.232 162.79 39.232ZM172.835 39C172.323 39.1013 171.816 39.1413 171.315 39.12C170.819 39.104 170.376 39.0053 169.987 38.824C169.597 38.6373 169.301 38.3493 169.099 37.96C168.928 37.6187 168.835 37.2747 168.819 36.928C168.808 36.576 168.803 36.1787 168.803 35.736V27.96H170.227V35.672C170.227 36.024 170.229 36.3253 170.235 36.576C170.245 36.8267 170.301 37.0427 170.403 37.224C170.595 37.5653 170.899 37.7653 171.315 37.824C171.736 37.8827 172.243 37.8667 172.835 37.776V39ZM167.051 31.536V30.36H172.835V31.536H167.051ZM177.045 39.24C176.399 39.24 175.858 39.1227 175.421 38.888C174.989 38.648 174.661 38.3333 174.437 37.944C174.218 37.5547 174.109 37.128 174.109 36.664C174.109 36.2107 174.194 35.8187 174.365 35.488C174.541 35.152 174.786 34.8747 175.101 34.656C175.415 34.432 175.791 34.256 176.229 34.128C176.639 34.016 177.098 33.92 177.605 33.84C178.117 33.7547 178.634 33.6773 179.157 33.608C179.679 33.5387 180.167 33.472 180.621 33.408L180.109 33.704C180.125 32.936 179.97 32.368 179.645 32C179.325 31.632 178.77 31.448 177.981 31.448C177.458 31.448 176.999 31.568 176.605 31.808C176.215 32.0427 175.941 32.4267 175.781 32.96L174.429 32.552C174.637 31.7947 175.039 31.2 175.637 30.768C176.234 30.336 177.021 30.12 177.997 30.12C178.781 30.12 179.453 30.2613 180.013 30.544C180.578 30.8213 180.983 31.2427 181.229 31.808C181.351 32.0747 181.429 32.3653 181.461 32.68C181.493 32.9893 181.509 33.3147 181.509 33.656V39H180.245V36.928L180.541 37.12C180.215 37.8187 179.759 38.3467 179.173 38.704C178.591 39.0613 177.882 39.24 177.045 39.24ZM177.261 38.048C177.773 38.048 178.215 37.9573 178.589 37.776C178.967 37.5893 179.271 37.3467 179.501 37.048C179.73 36.744 179.879 36.4133 179.949 36.056C180.029 35.7893 180.071 35.4933 180.077 35.168C180.087 34.8373 180.093 34.584 180.093 34.408L180.589 34.624C180.125 34.688 179.669 34.7493 179.221 34.808C178.773 34.8667 178.349 34.9307 177.949 35C177.549 35.064 177.189 35.1413 176.869 35.232C176.634 35.3067 176.413 35.4027 176.205 35.52C176.002 35.6373 175.837 35.7893 175.709 35.976C175.586 36.1573 175.525 36.384 175.525 36.656C175.525 36.8907 175.583 37.1147 175.701 37.328C175.823 37.5413 176.01 37.7147 176.261 37.848C176.517 37.9813 176.85 38.048 177.261 38.048ZM30.8 61.24C29.9413 61.24 29.2 61.0453 28.576 60.656C27.9573 60.2667 27.48 59.728 27.144 59.04C26.808 58.352 26.64 57.5627 26.64 56.672C26.64 55.7653 26.8107 54.9707 27.152 54.288C27.4933 53.6053 27.976 53.0747 28.6 52.696C29.224 52.312 29.9573 52.12 30.8 52.12C31.664 52.12 32.408 52.3147 33.032 52.704C33.656 53.088 34.1333 53.624 34.464 54.312C34.8 54.9947 34.968 55.7813 34.968 56.672C34.968 57.5733 34.8 58.368 34.464 59.056C34.128 59.7387 33.648 60.2747 33.024 60.664C32.4 61.048 31.6587 61.24 30.8 61.24ZM30.8 59.888C31.696 59.888 32.3627 59.5893 32.8 58.992C33.2373 58.3947 33.456 57.6213 33.456 56.672C33.456 55.696 33.2347 54.92 32.792 54.344C32.3493 53.7627 31.6853 53.472 30.8 53.472C30.1973 53.472 29.7013 53.608 29.312 53.88C28.9227 54.152 28.632 54.528 28.44 55.008C28.248 55.488 28.152 56.0427 28.152 56.672C28.152 57.6427 28.376 58.4213 28.824 59.008C29.272 59.5947 29.9307 59.888 30.8 59.888ZM40.6974 61.24C39.8867 61.24 39.204 61.04 38.6494 60.64C38.0947 60.2347 37.6734 59.688 37.3854 59C37.1027 58.3067 36.9614 57.5307 36.9614 56.672C36.9614 55.8027 37.1027 55.024 37.3854 54.336C37.6734 53.648 38.0947 53.1067 38.6494 52.712C39.2094 52.3173 39.8947 52.12 40.7054 52.12C41.5054 52.12 42.1934 52.32 42.7694 52.72C43.3507 53.1147 43.796 53.656 44.1054 54.344C44.4147 55.032 44.5694 55.808 44.5694 56.672C44.5694 57.536 44.4147 58.312 44.1054 59C43.796 59.688 43.3507 60.2347 42.7694 60.64C42.1934 61.04 41.5027 61.24 40.6974 61.24ZM36.7214 64.84V52.36H37.9934V58.72H38.1534V64.84H36.7214ZM40.5214 59.936C41.092 59.936 41.564 59.792 41.9374 59.504C42.3107 59.216 42.5907 58.8267 42.7774 58.336C42.964 57.84 43.0574 57.2853 43.0574 56.672C43.0574 56.064 42.964 55.5147 42.7774 55.024C42.596 54.5333 42.3134 54.144 41.9294 53.856C41.5507 53.568 41.068 53.424 40.4814 53.424C39.9214 53.424 39.4574 53.5627 39.0894 53.84C38.7214 54.112 38.4467 54.4933 38.2654 54.984C38.084 55.4693 37.9934 56.032 37.9934 56.672C37.9934 57.3013 38.0814 57.864 38.2574 58.36C38.4387 58.8507 38.716 59.2373 39.0894 59.52C39.4627 59.7973 39.94 59.936 40.5214 59.936ZM49.9631 61.24C49.0885 61.24 48.3445 61.0453 47.7311 60.656C47.1231 60.2613 46.6591 59.72 46.3391 59.032C46.0191 58.344 45.8538 57.56 45.8431 56.68C45.8538 55.7787 46.0218 54.9867 46.3471 54.304C46.6778 53.616 47.1498 53.08 47.7631 52.696C48.3765 52.312 49.1151 52.12 49.9791 52.12C50.8911 52.12 51.6751 52.344 52.3311 52.792C52.9925 53.24 53.4351 53.8533 53.6591 54.632L52.2511 55.056C52.0698 54.5547 51.7738 54.1653 51.3631 53.888C50.9578 53.6107 50.4911 53.472 49.9631 53.472C49.3711 53.472 48.8831 53.6107 48.4991 53.888C48.1151 54.16 47.8298 54.5387 47.6431 55.024C47.4565 55.504 47.3605 56.056 47.3551 56.68C47.3658 57.64 47.5871 58.416 48.0191 59.008C48.4565 59.5947 49.1045 59.888 49.9631 59.888C50.5285 59.888 50.9978 59.76 51.3711 59.504C51.7445 59.2427 52.0271 58.8667 52.2191 58.376L53.6591 58.752C53.3605 59.5573 52.8938 60.1733 52.2591 60.6C51.6245 61.0267 50.8591 61.24 49.9631 61.24ZM55.2175 50.832V49.36H56.6415V50.832H55.2175ZM55.2175 61V52.36H56.6415V61H55.2175ZM63.3059 51.04H62.1459L63.1939 48.4H64.3539L63.3059 51.04ZM62.7219 61.24C61.8632 61.24 61.1219 61.0453 60.4979 60.656C59.8792 60.2667 59.4019 59.728 59.0659 59.04C58.7299 58.352 58.5619 57.5627 58.5619 56.672C58.5619 55.7653 58.7325 54.9707 59.0739 54.288C59.4152 53.6053 59.8979 53.0747 60.5219 52.696C61.1459 52.312 61.8792 52.12 62.7219 52.12C63.5859 52.12 64.3299 52.3147 64.9539 52.704C65.5779 53.088 66.0552 53.624 66.3859 54.312C66.7219 54.9947 66.8899 55.7813 66.8899 56.672C66.8899 57.5733 66.7219 58.368 66.3859 59.056C66.0499 59.7387 65.5699 60.2747 64.9459 60.664C64.3219 61.048 63.5805 61.24 62.7219 61.24ZM62.7219 59.888C63.6179 59.888 64.2845 59.5893 64.7219 58.992C65.1592 58.3947 65.3779 57.6213 65.3779 56.672C65.3779 55.696 65.1565 54.92 64.7139 54.344C64.2712 53.7627 63.6072 53.472 62.7219 53.472C62.1192 53.472 61.6232 53.608 61.2339 53.88C60.8445 54.152 60.5539 54.528 60.3619 55.008C60.1699 55.488 60.0739 56.0427 60.0739 56.672C60.0739 57.6427 60.2979 58.4213 60.7459 59.008C61.1939 59.5947 61.8525 59.888 62.7219 59.888ZM74.8033 61V56.672C74.8033 56.2613 74.7659 55.8667 74.6913 55.488C74.6219 55.1093 74.4966 54.7707 74.3153 54.472C74.1393 54.168 73.8993 53.928 73.5953 53.752C73.2966 53.576 72.9179 53.488 72.4593 53.488C72.1019 53.488 71.7766 53.5493 71.4833 53.672C71.1953 53.7893 70.9473 53.9707 70.7393 54.216C70.5313 54.4613 70.3686 54.7707 70.2513 55.144C70.1393 55.512 70.0833 55.9467 70.0833 56.448L69.1473 56.16C69.1473 55.3227 69.2966 54.6053 69.5953 54.008C69.8993 53.4053 70.3233 52.944 70.8673 52.624C71.4166 52.2987 72.0619 52.136 72.8033 52.136C73.3633 52.136 73.8406 52.224 74.2353 52.4C74.6299 52.576 74.9579 52.8107 75.2193 53.104C75.4806 53.392 75.6859 53.7173 75.8353 54.08C75.9846 54.4373 76.0886 54.8027 76.1473 55.176C76.2113 55.544 76.2433 55.8933 76.2433 56.224V61H74.8033ZM68.6433 61V52.36H69.9233V54.672H70.0833V61H68.6433Z" fill="white"/>
<defs>
<clipPath id="clip0_1883_6901">
<rect width="24" height="24" fill="white" transform="translate(51 111)"/>
</clipPath>
</defs>
</svg>
